<?xml version="1.0" encoding="utf-8" standalone="no"?>
<!DOCTYPE svg PUBLIC "-//W3C//DTD SVG 1.1//EN"
  "http://www.w3.org/Graphics/SVG/1.1/DTD/svg11.dtd">
<svg xmlns:xlink="http://www.w3.org/1999/xlink" width="460.8pt" height="345.6pt" viewBox="0 0 460.8 345.6" xmlns="http://www.w3.org/2000/svg" version="1.1">
 <metadata>
  <rdf:RDF xmlns:dc="http://purl.org/dc/elements/1.1/" xmlns:cc="http://creativecommons.org/ns#" xmlns:rdf="http://www.w3.org/1999/02/22-rdf-syntax-ns#">
   <cc:Work>
    <dc:type rdf:resource="http://purl.org/dc/dcmitype/StillImage"/>
    <dc:date>2023-02-17T14:28:41.229829</dc:date>
    <dc:format>image/svg+xml</dc:format>
    <dc:creator>
     <cc:Agent>
      <dc:title>Matplotlib v3.6.3, https://matplotlib.org/</dc:title>
     </cc:Agent>
    </dc:creator>
   </cc:Work>
  </rdf:RDF>
 </metadata>
 <defs>
  <style type="text/css">*{stroke-linejoin: round; stroke-linecap: butt}</style>
 </defs>
 <g id="figure_1">
  <g id="patch_1">
   <path d="M 0 345.6 
L 460.8 345.6 
L 460.8 0 
L 0 0 
z
" style="fill: #ffffff"/>
  </g>
  <g id="axes_1">
   <g id="patch_2">
    <path d="M 57.6 307.584 
L 414.72 307.584 
L 414.72 41.472 
L 57.6 41.472 
z
" style="fill: #ffffff"/>
   </g>
   <g id="matplotlib.axis_1">
    <g id="text_1">
     <!-- $W$ -->
     <g transform="translate(231.21 322.682437) scale(0.1 -0.1)">
      <defs>
       <path id="DejaVuSans-Oblique-57" d="M 616 4666 
L 1228 4666 
L 1453 697 
L 3213 4666 
L 3916 4666 
L 4147 697 
L 5888 4666 
L 6528 4666 
L 4453 0 
L 3659 0 
L 3444 3891 
L 1697 0 
L 903 0 
L 616 4666 
z
" transform="scale(0.015625)"/>
      </defs>
      <use xlink:href="#DejaVuSans-Oblique-57" transform="translate(0 0.09375)"/>
     </g>
    </g>
   </g>
   <g id="matplotlib.axis_2">
    <g id="text_2">
     <!-- $X$ -->
     <g transform="translate(48.020313 177.978) rotate(-90) scale(0.1 -0.1)">
      <defs>
       <path id="DejaVuSans-Oblique-58" d="M 878 4666 
L 1516 4666 
L 2316 2981 
L 3763 4666 
L 4500 4666 
L 2578 2438 
L 3738 0 
L 3103 0 
L 2163 1966 
L 459 0 
L -275 0 
L 1906 2509 
L 878 4666 
z
" transform="scale(0.015625)"/>
      </defs>
      <use xlink:href="#DejaVuSans-Oblique-58" transform="translate(0 0.09375)"/>
     </g>
    </g>
   </g>
   <g id="line2d_1">
    <path d="M 73.832727 295.488 
L 76.467726 287.775561 
L 79.080416 280.418652 
L 81.693106 273.340151 
L 84.305796 266.529759 
L 86.918486 259.977441 
L 89.531176 253.673439 
L 92.143867 247.608267 
L 94.756557 241.772721 
L 97.369247 236.157872 
L 99.981937 230.755075 
L 102.594627 225.555963 
L 105.207317 220.552447 
L 107.820007 215.736715 
L 110.432698 211.101226 
L 113.045388 206.638711 
L 116.191848 201.484189 
L 119.338309 196.55866 
L 122.484769 191.850926 
L 125.63123 187.350311 
L 128.77769 183.046644 
L 131.924151 178.930242 
L 135.070611 174.991896 
L 138.217072 171.222852 
L 141.363532 167.614793 
L 144.509993 164.159823 
L 147.656453 160.850447 
L 150.802914 157.679556 
L 153.949374 154.640408 
L 157.095834 151.726613 
L 160.242295 148.932113 
L 163.388755 146.25117 
L 167.217591 143.134137 
L 171.046427 140.167995 
L 174.875263 137.34411 
L 178.704099 134.654399 
L 182.532935 132.091299 
L 186.36177 129.647732 
L 190.190606 127.317071 
L 194.019442 125.093116 
L 197.848278 122.97006 
L 201.677114 120.942466 
L 205.50595 119.005244 
L 210.176987 116.757372 
L 214.629544 114.725866 
L 219.082101 112.796347 
L 223.534659 110.962819 
L 227.987216 109.219711 
L 232.439773 107.561854 
L 236.89233 105.98444 
L 242.298125 104.171031 
L 247.70392 102.462244 
L 253.109715 100.851311 
L 258.51551 99.332022 
L 263.921305 97.898678 
L 269.3271 96.546045 
L 274.732895 95.269308 
L 280.13869 94.06404 
L 285.544485 92.926167 
L 292.039563 91.642864 
L 298.53464 90.445497 
L 305.029718 89.328664 
L 311.524795 88.287467 
L 318.019873 87.317455 
L 324.51495 86.414586 
L 331.010027 85.575192 
L 336.16334 84.952142 
L 341.316653 84.365419 
L 346.469966 83.813611 
L 351.623279 83.295412 
L 356.776592 82.809613 
L 361.929905 82.355099 
L 365.920361 82.023983 
L 369.910816 81.710563 
L 373.901272 81.414423 
L 377.891728 81.135175 
L 381.882183 80.872455 
L 385.872639 80.625922 
L 388.843954 80.45268 
L 391.815269 80.288115 
L 394.786584 80.132112 
L 397.7579 79.984564 
L 398.487273 79.949625 
" clip-path="url(#pc7cc27896e)" style="fill: none; stroke: #1f77b4; stroke-width: 1.5; stroke-linecap: square"/>
   </g>
   <g id="line2d_2">
    <path d="M 73.832727 295.488 
L 78.431813 282.161174 
L 83.129364 269.342685 
L 87.826914 257.286111 
L 92.524464 245.9516 
L 97.222015 235.300074 
L 100.982788 227.239232 
L 104.743562 219.572617 
L 108.504336 212.281668 
L 112.265109 205.348356 
L 116.025883 198.75522 
L 119.786657 192.485393 
L 123.54743 186.522615 
L 127.308204 180.85125 
L 131.068978 175.456296 
L 134.829751 170.323384 
L 138.590525 165.438778 
L 142.351299 160.789368 
L 146.112072 156.362664 
L 149.872846 152.146782 
L 153.63362 148.130428 
L 157.394393 144.302886 
L 161.155167 140.653995 
L 164.915941 137.17413 
L 168.676715 133.854185 
L 172.437488 130.68555 
L 176.198262 127.660087 
L 179.959036 124.770112 
L 183.719809 122.008373 
L 187.480583 119.368026 
L 191.241357 116.84262 
L 195.00213 114.426068 
L 198.762904 112.112636 
L 203.334055 109.43177 
L 207.905206 106.886193 
L 212.476357 104.467449 
L 217.047508 102.167671 
L 221.618659 99.979539 
L 226.18981 97.896244 
L 230.760961 95.911448 
L 235.332112 94.019251 
L 239.903263 92.214161 
L 244.474414 90.491061 
L 250.033458 88.499197 
L 255.342592 86.696214 
L 260.651725 84.983815 
L 265.960859 83.356129 
L 271.269992 81.807735 
L 276.579126 80.333622 
L 282.950886 78.656035 
L 289.322647 77.071429 
L 295.694408 75.573092 
L 302.066169 74.154895 
L 308.437929 72.811234 
L 314.80969 71.536981 
L 321.181451 70.327435 
L 327.553211 69.178284 
L 335.393726 67.8413 
L 342.924107 66.631416 
L 350.454489 65.488776 
L 357.984871 64.408484 
L 365.515252 63.386082 
L 373.045634 62.417507 
L 382.326856 61.292324 
L 391.608077 60.237017 
L 398.487273 59.496573 
" clip-path="url(#pc7cc27896e)" style="fill: none; stroke: #ff7f0e; stroke-width: 1.5; stroke-linecap: square"/>
   </g>
   <g id="line2d_3">
    <path d="M 73.832727 295.488 
L 78.435214 282.122847 
L 81.974279 272.336454 
L 85.513344 262.962284 
L 90.301943 250.911026 
L 95.090542 239.55709 
L 98.010374 232.962102 
L 101.801792 224.754593 
L 105.593209 216.934341 
L 109.384627 209.485138 
L 113.176045 202.391002 
L 116.967462 195.636231 
L 120.75888 189.205453 
L 124.550297 183.083664 
L 128.341715 177.256273 
L 132.133132 171.709124 
L 135.92455 166.428525 
L 139.715967 161.401266 
L 143.507385 156.614632 
L 147.298802 152.056411 
L 151.09022 147.714899 
L 154.881637 143.578899 
L 158.673055 139.637719 
L 162.464472 135.881164 
L 166.25589 132.299528 
L 170.047308 128.883582 
L 173.838725 125.624561 
L 177.630143 122.514152 
L 181.42156 119.544472 
L 185.212978 116.708061 
L 189.004395 113.997857 
L 192.795813 111.407182 
L 196.58723 108.929726 
L 200.378648 106.559529 
L 204.98994 103.813237 
L 209.601232 101.2078 
L 214.212524 98.734364 
L 218.823816 96.384681 
L 223.435108 94.151072 
L 228.046401 92.026382 
L 232.657693 90.003949 
L 237.268985 88.07757 
L 241.880277 86.241466 
L 246.491569 84.490253 
L 252.046462 82.486325 
L 257.601354 80.590206 
L 263.156247 78.794434 
L 268.71114 77.092144 
L 274.266032 75.477022 
L 279.820925 73.943251 
L 285.375818 72.485471 
L 290.93071 71.09874 
L 297.622133 69.516181 
L 304.034097 68.083485 
L 310.446061 66.72682 
L 316.858025 65.440829 
L 323.269988 64.220606 
L 329.681952 63.061659 
L 337.490513 61.727083 
L 345.299073 60.470509 
L 353.107634 59.285814 
L 360.916194 58.167462 
L 368.724755 57.110435 
L 376.533316 56.110182 
L 384.341876 55.162563 
L 393.911316 54.067534 
L 398.487273 53.568 
" clip-path="url(#pc7cc27896e)" style="fill: none; stroke: #2ca02c; stroke-width: 1.5; stroke-linecap: square"/>
   </g>
   <g id="patch_3">
    <path d="M 57.6 307.584 
L 57.6 41.472 
" style="fill: none; stroke: #000000; stroke-width: 0.8; stroke-linejoin: miter; stroke-linecap: square"/>
   </g>
   <g id="patch_4">
    <path d="M 414.72 307.584 
L 414.72 41.472 
" style="fill: none; stroke: #000000; stroke-width: 0.8; stroke-linejoin: miter; stroke-linecap: square"/>
   </g>
   <g id="patch_5">
    <path d="M 57.6 307.584 
L 414.72 307.584 
" style="fill: none; stroke: #000000; stroke-width: 0.8; stroke-linejoin: miter; stroke-linecap: square"/>
   </g>
   <g id="patch_6">
    <path d="M 57.6 41.472 
L 414.72 41.472 
" style="fill: none; stroke: #000000; stroke-width: 0.8; stroke-linejoin: miter; stroke-linecap: square"/>
   </g>
   <g id="text_3">
    <!-- Problem 3b Comparison of Conversion for Pressure Drop -->
    <g transform="translate(67.015312 35.472) scale(0.12 -0.12)">
     <defs>
      <path id="DejaVuSans-50" d="M 1259 4147 
L 1259 2394 
L 2053 2394 
Q 2494 2394 2734 2622 
Q 2975 2850 2975 3272 
Q 2975 3691 2734 3919 
Q 2494 4147 2053 4147 
L 1259 4147 
z
M 628 4666 
L 2053 4666 
Q 2838 4666 3239 4311 
Q 3641 3956 3641 3272 
Q 3641 2581 3239 2228 
Q 2838 1875 2053 1875 
L 1259 1875 
L 1259 0 
L 628 0 
L 628 4666 
z
" transform="scale(0.015625)"/>
      <path id="DejaVuSans-72" d="M 2631 2963 
Q 2534 3019 2420 3045 
Q 2306 3072 2169 3072 
Q 1681 3072 1420 2755 
Q 1159 2438 1159 1844 
L 1159 0 
L 581 0 
L 581 3500 
L 1159 3500 
L 1159 2956 
Q 1341 3275 1631 3429 
Q 1922 3584 2338 3584 
Q 2397 3584 2469 3576 
Q 2541 3569 2628 3553 
L 2631 2963 
z
" transform="scale(0.015625)"/>
      <path id="DejaVuSans-6f" d="M 1959 3097 
Q 1497 3097 1228 2736 
Q 959 2375 959 1747 
Q 959 1119 1226 758 
Q 1494 397 1959 397 
Q 2419 397 2687 759 
Q 2956 1122 2956 1747 
Q 2956 2369 2687 2733 
Q 2419 3097 1959 3097 
z
M 1959 3584 
Q 2709 3584 3137 3096 
Q 3566 2609 3566 1747 
Q 3566 888 3137 398 
Q 2709 -91 1959 -91 
Q 1206 -91 779 398 
Q 353 888 353 1747 
Q 353 2609 779 3096 
Q 1206 3584 1959 3584 
z
" transform="scale(0.015625)"/>
      <path id="DejaVuSans-62" d="M 3116 1747 
Q 3116 2381 2855 2742 
Q 2594 3103 2138 3103 
Q 1681 3103 1420 2742 
Q 1159 2381 1159 1747 
Q 1159 1113 1420 752 
Q 1681 391 2138 391 
Q 2594 391 2855 752 
Q 3116 1113 3116 1747 
z
M 1159 2969 
Q 1341 3281 1617 3432 
Q 1894 3584 2278 3584 
Q 2916 3584 3314 3078 
Q 3713 2572 3713 1747 
Q 3713 922 3314 415 
Q 2916 -91 2278 -91 
Q 1894 -91 1617 61 
Q 1341 213 1159 525 
L 1159 0 
L 581 0 
L 581 4863 
L 1159 4863 
L 1159 2969 
z
" transform="scale(0.015625)"/>
      <path id="DejaVuSans-6c" d="M 603 4863 
L 1178 4863 
L 1178 0 
L 603 0 
L 603 4863 
z
" transform="scale(0.015625)"/>
      <path id="DejaVuSans-65" d="M 3597 1894 
L 3597 1613 
L 953 1613 
Q 991 1019 1311 708 
Q 1631 397 2203 397 
Q 2534 397 2845 478 
Q 3156 559 3463 722 
L 3463 178 
Q 3153 47 2828 -22 
Q 2503 -91 2169 -91 
Q 1331 -91 842 396 
Q 353 884 353 1716 
Q 353 2575 817 3079 
Q 1281 3584 2069 3584 
Q 2775 3584 3186 3129 
Q 3597 2675 3597 1894 
z
M 3022 2063 
Q 3016 2534 2758 2815 
Q 2500 3097 2075 3097 
Q 1594 3097 1305 2825 
Q 1016 2553 972 2059 
L 3022 2063 
z
" transform="scale(0.015625)"/>
      <path id="DejaVuSans-6d" d="M 3328 2828 
Q 3544 3216 3844 3400 
Q 4144 3584 4550 3584 
Q 5097 3584 5394 3201 
Q 5691 2819 5691 2113 
L 5691 0 
L 5113 0 
L 5113 2094 
Q 5113 2597 4934 2840 
Q 4756 3084 4391 3084 
Q 3944 3084 3684 2787 
Q 3425 2491 3425 1978 
L 3425 0 
L 2847 0 
L 2847 2094 
Q 2847 2600 2669 2842 
Q 2491 3084 2119 3084 
Q 1678 3084 1418 2786 
Q 1159 2488 1159 1978 
L 1159 0 
L 581 0 
L 581 3500 
L 1159 3500 
L 1159 2956 
Q 1356 3278 1631 3431 
Q 1906 3584 2284 3584 
Q 2666 3584 2933 3390 
Q 3200 3197 3328 2828 
z
" transform="scale(0.015625)"/>
      <path id="DejaVuSans-20" transform="scale(0.015625)"/>
      <path id="DejaVuSans-33" d="M 2597 2516 
Q 3050 2419 3304 2112 
Q 3559 1806 3559 1356 
Q 3559 666 3084 287 
Q 2609 -91 1734 -91 
Q 1441 -91 1130 -33 
Q 819 25 488 141 
L 488 750 
Q 750 597 1062 519 
Q 1375 441 1716 441 
Q 2309 441 2620 675 
Q 2931 909 2931 1356 
Q 2931 1769 2642 2001 
Q 2353 2234 1838 2234 
L 1294 2234 
L 1294 2753 
L 1863 2753 
Q 2328 2753 2575 2939 
Q 2822 3125 2822 3475 
Q 2822 3834 2567 4026 
Q 2313 4219 1838 4219 
Q 1578 4219 1281 4162 
Q 984 4106 628 3988 
L 628 4550 
Q 988 4650 1302 4700 
Q 1616 4750 1894 4750 
Q 2613 4750 3031 4423 
Q 3450 4097 3450 3541 
Q 3450 3153 3228 2886 
Q 3006 2619 2597 2516 
z
" transform="scale(0.015625)"/>
      <path id="DejaVuSans-43" d="M 4122 4306 
L 4122 3641 
Q 3803 3938 3442 4084 
Q 3081 4231 2675 4231 
Q 1875 4231 1450 3742 
Q 1025 3253 1025 2328 
Q 1025 1406 1450 917 
Q 1875 428 2675 428 
Q 3081 428 3442 575 
Q 3803 722 4122 1019 
L 4122 359 
Q 3791 134 3420 21 
Q 3050 -91 2638 -91 
Q 1578 -91 968 557 
Q 359 1206 359 2328 
Q 359 3453 968 4101 
Q 1578 4750 2638 4750 
Q 3056 4750 3426 4639 
Q 3797 4528 4122 4306 
z
" transform="scale(0.015625)"/>
      <path id="DejaVuSans-70" d="M 1159 525 
L 1159 -1331 
L 581 -1331 
L 581 3500 
L 1159 3500 
L 1159 2969 
Q 1341 3281 1617 3432 
Q 1894 3584 2278 3584 
Q 2916 3584 3314 3078 
Q 3713 2572 3713 1747 
Q 3713 922 3314 415 
Q 2916 -91 2278 -91 
Q 1894 -91 1617 61 
Q 1341 213 1159 525 
z
M 3116 1747 
Q 3116 2381 2855 2742 
Q 2594 3103 2138 3103 
Q 1681 3103 1420 2742 
Q 1159 2381 1159 1747 
Q 1159 1113 1420 752 
Q 1681 391 2138 391 
Q 2594 391 2855 752 
Q 3116 1113 3116 1747 
z
" transform="scale(0.015625)"/>
      <path id="DejaVuSans-61" d="M 2194 1759 
Q 1497 1759 1228 1600 
Q 959 1441 959 1056 
Q 959 750 1161 570 
Q 1363 391 1709 391 
Q 2188 391 2477 730 
Q 2766 1069 2766 1631 
L 2766 1759 
L 2194 1759 
z
M 3341 1997 
L 3341 0 
L 2766 0 
L 2766 531 
Q 2569 213 2275 61 
Q 1981 -91 1556 -91 
Q 1019 -91 701 211 
Q 384 513 384 1019 
Q 384 1609 779 1909 
Q 1175 2209 1959 2209 
L 2766 2209 
L 2766 2266 
Q 2766 2663 2505 2880 
Q 2244 3097 1772 3097 
Q 1472 3097 1187 3025 
Q 903 2953 641 2809 
L 641 3341 
Q 956 3463 1253 3523 
Q 1550 3584 1831 3584 
Q 2591 3584 2966 3190 
Q 3341 2797 3341 1997 
z
" transform="scale(0.015625)"/>
      <path id="DejaVuSans-69" d="M 603 3500 
L 1178 3500 
L 1178 0 
L 603 0 
L 603 3500 
z
M 603 4863 
L 1178 4863 
L 1178 4134 
L 603 4134 
L 603 4863 
z
" transform="scale(0.015625)"/>
      <path id="DejaVuSans-73" d="M 2834 3397 
L 2834 2853 
Q 2591 2978 2328 3040 
Q 2066 3103 1784 3103 
Q 1356 3103 1142 2972 
Q 928 2841 928 2578 
Q 928 2378 1081 2264 
Q 1234 2150 1697 2047 
L 1894 2003 
Q 2506 1872 2764 1633 
Q 3022 1394 3022 966 
Q 3022 478 2636 193 
Q 2250 -91 1575 -91 
Q 1294 -91 989 -36 
Q 684 19 347 128 
L 347 722 
Q 666 556 975 473 
Q 1284 391 1588 391 
Q 1994 391 2212 530 
Q 2431 669 2431 922 
Q 2431 1156 2273 1281 
Q 2116 1406 1581 1522 
L 1381 1569 
Q 847 1681 609 1914 
Q 372 2147 372 2553 
Q 372 3047 722 3315 
Q 1072 3584 1716 3584 
Q 2034 3584 2315 3537 
Q 2597 3491 2834 3397 
z
" transform="scale(0.015625)"/>
      <path id="DejaVuSans-6e" d="M 3513 2113 
L 3513 0 
L 2938 0 
L 2938 2094 
Q 2938 2591 2744 2837 
Q 2550 3084 2163 3084 
Q 1697 3084 1428 2787 
Q 1159 2491 1159 1978 
L 1159 0 
L 581 0 
L 581 3500 
L 1159 3500 
L 1159 2956 
Q 1366 3272 1645 3428 
Q 1925 3584 2291 3584 
Q 2894 3584 3203 3211 
Q 3513 2838 3513 2113 
z
" transform="scale(0.015625)"/>
      <path id="DejaVuSans-66" d="M 2375 4863 
L 2375 4384 
L 1825 4384 
Q 1516 4384 1395 4259 
Q 1275 4134 1275 3809 
L 1275 3500 
L 2222 3500 
L 2222 3053 
L 1275 3053 
L 1275 0 
L 697 0 
L 697 3053 
L 147 3053 
L 147 3500 
L 697 3500 
L 697 3744 
Q 697 4328 969 4595 
Q 1241 4863 1831 4863 
L 2375 4863 
z
" transform="scale(0.015625)"/>
      <path id="DejaVuSans-76" d="M 191 3500 
L 800 3500 
L 1894 563 
L 2988 3500 
L 3597 3500 
L 2284 0 
L 1503 0 
L 191 3500 
z
" transform="scale(0.015625)"/>
      <path id="DejaVuSans-75" d="M 544 1381 
L 544 3500 
L 1119 3500 
L 1119 1403 
Q 1119 906 1312 657 
Q 1506 409 1894 409 
Q 2359 409 2629 706 
Q 2900 1003 2900 1516 
L 2900 3500 
L 3475 3500 
L 3475 0 
L 2900 0 
L 2900 538 
Q 2691 219 2414 64 
Q 2138 -91 1772 -91 
Q 1169 -91 856 284 
Q 544 659 544 1381 
z
M 1991 3584 
L 1991 3584 
z
" transform="scale(0.015625)"/>
      <path id="DejaVuSans-44" d="M 1259 4147 
L 1259 519 
L 2022 519 
Q 2988 519 3436 956 
Q 3884 1394 3884 2338 
Q 3884 3275 3436 3711 
Q 2988 4147 2022 4147 
L 1259 4147 
z
M 628 4666 
L 1925 4666 
Q 3281 4666 3915 4102 
Q 4550 3538 4550 2338 
Q 4550 1131 3912 565 
Q 3275 0 1925 0 
L 628 0 
L 628 4666 
z
" transform="scale(0.015625)"/>
     </defs>
     <use xlink:href="#DejaVuSans-50"/>
     <use xlink:href="#DejaVuSans-72" x="58.552734"/>
     <use xlink:href="#DejaVuSans-6f" x="97.416016"/>
     <use xlink:href="#DejaVuSans-62" x="158.597656"/>
     <use xlink:href="#DejaVuSans-6c" x="222.074219"/>
     <use xlink:href="#DejaVuSans-65" x="249.857422"/>
     <use xlink:href="#DejaVuSans-6d" x="311.380859"/>
     <use xlink:href="#DejaVuSans-20" x="408.792969"/>
     <use xlink:href="#DejaVuSans-33" x="440.580078"/>
     <use xlink:href="#DejaVuSans-62" x="504.203125"/>
     <use xlink:href="#DejaVuSans-20" x="567.679688"/>
     <use xlink:href="#DejaVuSans-43" x="599.466797"/>
     <use xlink:href="#DejaVuSans-6f" x="669.291016"/>
     <use xlink:href="#DejaVuSans-6d" x="730.472656"/>
     <use xlink:href="#DejaVuSans-70" x="827.884766"/>
     <use xlink:href="#DejaVuSans-61" x="891.361328"/>
     <use xlink:href="#DejaVuSans-72" x="952.640625"/>
     <use xlink:href="#DejaVuSans-69" x="993.753906"/>
     <use xlink:href="#DejaVuSans-73" x="1021.537109"/>
     <use xlink:href="#DejaVuSans-6f" x="1073.636719"/>
     <use xlink:href="#DejaVuSans-6e" x="1134.818359"/>
     <use xlink:href="#DejaVuSans-20" x="1198.197266"/>
     <use xlink:href="#DejaVuSans-6f" x="1229.984375"/>
     <use xlink:href="#DejaVuSans-66" x="1291.166016"/>
     <use xlink:href="#DejaVuSans-20" x="1326.371094"/>
     <use xlink:href="#DejaVuSans-43" x="1358.158203"/>
     <use xlink:href="#DejaVuSans-6f" x="1427.982422"/>
     <use xlink:href="#DejaVuSans-6e" x="1489.164062"/>
     <use xlink:href="#DejaVuSans-76" x="1552.542969"/>
     <use xlink:href="#DejaVuSans-65" x="1611.722656"/>
     <use xlink:href="#DejaVuSans-72" x="1673.246094"/>
     <use xlink:href="#DejaVuSans-73" x="1714.359375"/>
     <use xlink:href="#DejaVuSans-69" x="1766.458984"/>
     <use xlink:href="#DejaVuSans-6f" x="1794.242188"/>
     <use xlink:href="#DejaVuSans-6e" x="1855.423828"/>
     <use xlink:href="#DejaVuSans-20" x="1918.802734"/>
     <use xlink:href="#DejaVuSans-66" x="1950.589844"/>
     <use xlink:href="#DejaVuSans-6f" x="1985.794922"/>
     <use xlink:href="#DejaVuSans-72" x="2046.976562"/>
     <use xlink:href="#DejaVuSans-20" x="2088.089844"/>
     <use xlink:href="#DejaVuSans-50" x="2119.876953"/>
     <use xlink:href="#DejaVuSans-72" x="2178.429688"/>
     <use xlink:href="#DejaVuSans-65" x="2217.292969"/>
     <use xlink:href="#DejaVuSans-73" x="2278.816406"/>
     <use xlink:href="#DejaVuSans-73" x="2330.916016"/>
     <use xlink:href="#DejaVuSans-75" x="2383.015625"/>
     <use xlink:href="#DejaVuSans-72" x="2446.394531"/>
     <use xlink:href="#DejaVuSans-65" x="2485.257812"/>
     <use xlink:href="#DejaVuSans-20" x="2546.78125"/>
     <use xlink:href="#DejaVuSans-44" x="2578.568359"/>
     <use xlink:href="#DejaVuSans-72" x="2655.570312"/>
     <use xlink:href="#DejaVuSans-6f" x="2694.433594"/>
     <use xlink:href="#DejaVuSans-70" x="2755.615234"/>
    </g>
   </g>
   <g id="legend_1">
    <g id="patch_7">
     <path d="M 64.6 93.526688 
L 149.5 93.526688 
Q 151.5 93.526688 151.5 91.526688 
L 151.5 48.472 
Q 151.5 46.472 149.5 46.472 
L 64.6 46.472 
Q 62.6 46.472 62.6 48.472 
L 62.6 91.526688 
Q 62.6 93.526688 64.6 93.526688 
z
" style="fill: #ffffff; opacity: 0.8; stroke: #cccccc; stroke-linejoin: miter"/>
    </g>
    <g id="line2d_4">
     <path d="M 66.6 54.570438 
L 76.6 54.570438 
L 86.6 54.570438 
" style="fill: none; stroke: #1f77b4; stroke-width: 1.5; stroke-linecap: square"/>
    </g>
    <g id="text_4">
     <!-- Largest $\alpha$ -->
     <g transform="translate(94.6 58.070438) scale(0.1 -0.1)">
      <defs>
       <path id="DejaVuSans-4c" d="M 628 4666 
L 1259 4666 
L 1259 531 
L 3531 531 
L 3531 0 
L 628 0 
L 628 4666 
z
" transform="scale(0.015625)"/>
       <path id="DejaVuSans-67" d="M 2906 1791 
Q 2906 2416 2648 2759 
Q 2391 3103 1925 3103 
Q 1463 3103 1205 2759 
Q 947 2416 947 1791 
Q 947 1169 1205 825 
Q 1463 481 1925 481 
Q 2391 481 2648 825 
Q 2906 1169 2906 1791 
z
M 3481 434 
Q 3481 -459 3084 -895 
Q 2688 -1331 1869 -1331 
Q 1566 -1331 1297 -1286 
Q 1028 -1241 775 -1147 
L 775 -588 
Q 1028 -725 1275 -790 
Q 1522 -856 1778 -856 
Q 2344 -856 2625 -561 
Q 2906 -266 2906 331 
L 2906 616 
Q 2728 306 2450 153 
Q 2172 0 1784 0 
Q 1141 0 747 490 
Q 353 981 353 1791 
Q 353 2603 747 3093 
Q 1141 3584 1784 3584 
Q 2172 3584 2450 3431 
Q 2728 3278 2906 2969 
L 2906 3500 
L 3481 3500 
L 3481 434 
z
" transform="scale(0.015625)"/>
       <path id="DejaVuSans-74" d="M 1172 4494 
L 1172 3500 
L 2356 3500 
L 2356 3053 
L 1172 3053 
L 1172 1153 
Q 1172 725 1289 603 
Q 1406 481 1766 481 
L 2356 481 
L 2356 0 
L 1766 0 
Q 1100 0 847 248 
Q 594 497 594 1153 
L 594 3053 
L 172 3053 
L 172 3500 
L 594 3500 
L 594 4494 
L 1172 4494 
z
" transform="scale(0.015625)"/>
       <path id="DejaVuSans-Oblique-3b1" d="M 2619 1628 
L 2622 2350 
Q 2625 3088 2069 3091 
Q 1653 3094 1394 2747 
Q 1069 2319 959 1747 
Q 825 1059 994 731 
Q 1169 397 1547 397 
Q 1966 397 2319 1063 
L 2619 1628 
z
M 2166 3578 
Q 3141 3594 3128 2584 
Q 3128 2584 3616 3500 
L 4128 3500 
L 3119 1603 
L 3109 919 
Q 3109 766 3194 638 
Q 3291 488 3391 488 
L 3669 488 
L 3575 0 
L 3228 0 
Q 2934 0 2722 263 
Q 2622 394 2619 669 
Q 2416 334 2066 50 
Q 1900 -81 1453 -78 
Q 722 -72 456 397 
Q 184 884 353 1747 
Q 534 2675 1009 3097 
Q 1544 3569 2166 3578 
z
" transform="scale(0.015625)"/>
      </defs>
      <use xlink:href="#DejaVuSans-4c" transform="translate(0 0.09375)"/>
      <use xlink:href="#DejaVuSans-61" transform="translate(55.712891 0.09375)"/>
      <use xlink:href="#DejaVuSans-72" transform="translate(116.992188 0.09375)"/>
      <use xlink:href="#DejaVuSans-67" transform="translate(158.105469 0.09375)"/>
      <use xlink:href="#DejaVuSans-65" transform="translate(221.582031 0.09375)"/>
      <use xlink:href="#DejaVuSans-73" transform="translate(283.105469 0.09375)"/>
      <use xlink:href="#DejaVuSans-74" transform="translate(335.205078 0.09375)"/>
      <use xlink:href="#DejaVuSans-20" transform="translate(374.414062 0.09375)"/>
      <use xlink:href="#DejaVuSans-Oblique-3b1" transform="translate(406.201172 0.09375)"/>
     </g>
    </g>
    <g id="line2d_5">
     <path d="M 66.6 69.268875 
L 76.6 69.268875 
L 86.6 69.268875 
" style="fill: none; stroke: #ff7f0e; stroke-width: 1.5; stroke-linecap: square"/>
    </g>
    <g id="text_5">
     <!-- Middle $\alpha$ -->
     <g transform="translate(94.6 72.768875) scale(0.1 -0.1)">
      <defs>
       <path id="DejaVuSans-4d" d="M 628 4666 
L 1569 4666 
L 2759 1491 
L 3956 4666 
L 4897 4666 
L 4897 0 
L 4281 0 
L 4281 4097 
L 3078 897 
L 2444 897 
L 1241 4097 
L 1241 0 
L 628 0 
L 628 4666 
z
" transform="scale(0.015625)"/>
       <path id="DejaVuSans-64" d="M 2906 2969 
L 2906 4863 
L 3481 4863 
L 3481 0 
L 2906 0 
L 2906 525 
Q 2725 213 2448 61 
Q 2172 -91 1784 -91 
Q 1150 -91 751 415 
Q 353 922 353 1747 
Q 353 2572 751 3078 
Q 1150 3584 1784 3584 
Q 2172 3584 2448 3432 
Q 2725 3281 2906 2969 
z
M 947 1747 
Q 947 1113 1208 752 
Q 1469 391 1925 391 
Q 2381 391 2643 752 
Q 2906 1113 2906 1747 
Q 2906 2381 2643 2742 
Q 2381 3103 1925 3103 
Q 1469 3103 1208 2742 
Q 947 2381 947 1747 
z
" transform="scale(0.015625)"/>
      </defs>
      <use xlink:href="#DejaVuSans-4d" transform="translate(0 0.015625)"/>
      <use xlink:href="#DejaVuSans-69" transform="translate(86.279297 0.015625)"/>
      <use xlink:href="#DejaVuSans-64" transform="translate(114.0625 0.015625)"/>
      <use xlink:href="#DejaVuSans-64" transform="translate(177.539062 0.015625)"/>
      <use xlink:href="#DejaVuSans-6c" transform="translate(241.015625 0.015625)"/>
      <use xlink:href="#DejaVuSans-65" transform="translate(268.798828 0.015625)"/>
      <use xlink:href="#DejaVuSans-20" transform="translate(330.322266 0.015625)"/>
      <use xlink:href="#DejaVuSans-Oblique-3b1" transform="translate(362.109375 0.015625)"/>
     </g>
    </g>
    <g id="line2d_6">
     <path d="M 66.6 83.947 
L 76.6 83.947 
L 86.6 83.947 
" style="fill: none; stroke: #2ca02c; stroke-width: 1.5; stroke-linecap: square"/>
    </g>
    <g id="text_6">
     <!-- Smallest $\alpha$ -->
     <g transform="translate(94.6 87.447) scale(0.1 -0.1)">
      <defs>
       <path id="DejaVuSans-53" d="M 3425 4513 
L 3425 3897 
Q 3066 4069 2747 4153 
Q 2428 4238 2131 4238 
Q 1616 4238 1336 4038 
Q 1056 3838 1056 3469 
Q 1056 3159 1242 3001 
Q 1428 2844 1947 2747 
L 2328 2669 
Q 3034 2534 3370 2195 
Q 3706 1856 3706 1288 
Q 3706 609 3251 259 
Q 2797 -91 1919 -91 
Q 1588 -91 1214 -16 
Q 841 59 441 206 
L 441 856 
Q 825 641 1194 531 
Q 1563 422 1919 422 
Q 2459 422 2753 634 
Q 3047 847 3047 1241 
Q 3047 1584 2836 1778 
Q 2625 1972 2144 2069 
L 1759 2144 
Q 1053 2284 737 2584 
Q 422 2884 422 3419 
Q 422 4038 858 4394 
Q 1294 4750 2059 4750 
Q 2388 4750 2728 4690 
Q 3069 4631 3425 4513 
z
" transform="scale(0.015625)"/>
      </defs>
      <use xlink:href="#DejaVuSans-53" transform="translate(0 0.015625)"/>
      <use xlink:href="#DejaVuSans-6d" transform="translate(63.476562 0.015625)"/>
      <use xlink:href="#DejaVuSans-61" transform="translate(160.888672 0.015625)"/>
      <use xlink:href="#DejaVuSans-6c" transform="translate(222.167969 0.015625)"/>
      <use xlink:href="#DejaVuSans-6c" transform="translate(249.951172 0.015625)"/>
      <use xlink:href="#DejaVuSans-65" transform="translate(277.734375 0.015625)"/>
      <use xlink:href="#DejaVuSans-73" transform="translate(339.257812 0.015625)"/>
      <use xlink:href="#DejaVuSans-74" transform="translate(391.357422 0.015625)"/>
      <use xlink:href="#DejaVuSans-20" transform="translate(430.566406 0.015625)"/>
      <use xlink:href="#DejaVuSans-Oblique-3b1" transform="translate(462.353516 0.015625)"/>
     </g>
    </g>
   </g>
  </g>
 </g>
 <defs>
  <clipPath id="pc7cc27896e">
   <rect x="57.6" y="41.472" width="357.12" height="266.112"/>
  </clipPath>
 </defs>
</svg>
