<?xml version="1.0" encoding="utf-8" standalone="no"?>
<!DOCTYPE svg PUBLIC "-//W3C//DTD SVG 1.1//EN"
  "http://www.w3.org/Graphics/SVG/1.1/DTD/svg11.dtd">
<svg xmlns:xlink="http://www.w3.org/1999/xlink" width="460.8pt" height="345.6pt" viewBox="0 0 460.8 345.6" xmlns="http://www.w3.org/2000/svg" version="1.1">
 <metadata>
  <rdf:RDF xmlns:dc="http://purl.org/dc/elements/1.1/" xmlns:cc="http://creativecommons.org/ns#" xmlns:rdf="http://www.w3.org/1999/02/22-rdf-syntax-ns#">
   <cc:Work>
    <dc:type rdf:resource="http://purl.org/dc/dcmitype/StillImage"/>
    <dc:date>2023-03-26T15:37:43.403852</dc:date>
    <dc:format>image/svg+xml</dc:format>
    <dc:creator>
     <cc:Agent>
      <dc:title>Matplotlib v3.6.3, https://matplotlib.org/</dc:title>
     </cc:Agent>
    </dc:creator>
   </cc:Work>
  </rdf:RDF>
 </metadata>
 <defs>
  <style type="text/css">*{stroke-linejoin: round; stroke-linecap: butt}</style>
 </defs>
 <g id="figure_1">
  <g id="patch_1">
   <path d="M 0 345.6 
L 460.8 345.6 
L 460.8 0 
L 0 0 
z
" style="fill: #ffffff"/>
  </g>
  <g id="axes_1">
   <g id="patch_2">
    <path d="M 57.6 307.584 
L 414.72 307.584 
L 414.72 41.472 
L 57.6 41.472 
z
" style="fill: #ffffff"/>
   </g>
   <g id="matplotlib.axis_1">
    <g id="xtick_1">
     <g id="line2d_1">
      <path d="M 73.832727 307.584 
L 73.832727 41.472 
" clip-path="url(#p9e2cd04a17)" style="fill: none; stroke: #b0b0b0; stroke-width: 0.8; stroke-linecap: square"/>
     </g>
     <g id="line2d_2">
      <defs>
       <path id="md931dc28f2" d="M 0 0 
L 0 3.5 
" style="stroke: #000000; stroke-width: 0.8"/>
      </defs>
      <g>
       <use xlink:href="#md931dc28f2" x="73.832727" y="307.584" style="stroke: #000000; stroke-width: 0.8"/>
      </g>
     </g>
     <g id="text_1">
      <!-- 300 -->
      <g transform="translate(64.288977 322.182437) scale(0.1 -0.1)">
       <defs>
        <path id="DejaVuSans-33" d="M 2597 2516 
Q 3050 2419 3304 2112 
Q 3559 1806 3559 1356 
Q 3559 666 3084 287 
Q 2609 -91 1734 -91 
Q 1441 -91 1130 -33 
Q 819 25 488 141 
L 488 750 
Q 750 597 1062 519 
Q 1375 441 1716 441 
Q 2309 441 2620 675 
Q 2931 909 2931 1356 
Q 2931 1769 2642 2001 
Q 2353 2234 1838 2234 
L 1294 2234 
L 1294 2753 
L 1863 2753 
Q 2328 2753 2575 2939 
Q 2822 3125 2822 3475 
Q 2822 3834 2567 4026 
Q 2313 4219 1838 4219 
Q 1578 4219 1281 4162 
Q 984 4106 628 3988 
L 628 4550 
Q 988 4650 1302 4700 
Q 1616 4750 1894 4750 
Q 2613 4750 3031 4423 
Q 3450 4097 3450 3541 
Q 3450 3153 3228 2886 
Q 3006 2619 2597 2516 
z
" transform="scale(0.015625)"/>
        <path id="DejaVuSans-30" d="M 2034 4250 
Q 1547 4250 1301 3770 
Q 1056 3291 1056 2328 
Q 1056 1369 1301 889 
Q 1547 409 2034 409 
Q 2525 409 2770 889 
Q 3016 1369 3016 2328 
Q 3016 3291 2770 3770 
Q 2525 4250 2034 4250 
z
M 2034 4750 
Q 2819 4750 3233 4129 
Q 3647 3509 3647 2328 
Q 3647 1150 3233 529 
Q 2819 -91 2034 -91 
Q 1250 -91 836 529 
Q 422 1150 422 2328 
Q 422 3509 836 4129 
Q 1250 4750 2034 4750 
z
" transform="scale(0.015625)"/>
       </defs>
       <use xlink:href="#DejaVuSans-33"/>
       <use xlink:href="#DejaVuSans-30" x="63.623047"/>
       <use xlink:href="#DejaVuSans-30" x="127.246094"/>
      </g>
     </g>
    </g>
    <g id="xtick_2">
     <g id="line2d_3">
      <path d="M 138.763636 307.584 
L 138.763636 41.472 
" clip-path="url(#p9e2cd04a17)" style="fill: none; stroke: #b0b0b0; stroke-width: 0.8; stroke-linecap: square"/>
     </g>
     <g id="line2d_4">
      <g>
       <use xlink:href="#md931dc28f2" x="138.763636" y="307.584" style="stroke: #000000; stroke-width: 0.8"/>
      </g>
     </g>
     <g id="text_2">
      <!-- 350 -->
      <g transform="translate(129.219886 322.182437) scale(0.1 -0.1)">
       <defs>
        <path id="DejaVuSans-35" d="M 691 4666 
L 3169 4666 
L 3169 4134 
L 1269 4134 
L 1269 2991 
Q 1406 3038 1543 3061 
Q 1681 3084 1819 3084 
Q 2600 3084 3056 2656 
Q 3513 2228 3513 1497 
Q 3513 744 3044 326 
Q 2575 -91 1722 -91 
Q 1428 -91 1123 -41 
Q 819 9 494 109 
L 494 744 
Q 775 591 1075 516 
Q 1375 441 1709 441 
Q 2250 441 2565 725 
Q 2881 1009 2881 1497 
Q 2881 1984 2565 2268 
Q 2250 2553 1709 2553 
Q 1456 2553 1204 2497 
Q 953 2441 691 2322 
L 691 4666 
z
" transform="scale(0.015625)"/>
       </defs>
       <use xlink:href="#DejaVuSans-33"/>
       <use xlink:href="#DejaVuSans-35" x="63.623047"/>
       <use xlink:href="#DejaVuSans-30" x="127.246094"/>
      </g>
     </g>
    </g>
    <g id="xtick_3">
     <g id="line2d_5">
      <path d="M 203.694545 307.584 
L 203.694545 41.472 
" clip-path="url(#p9e2cd04a17)" style="fill: none; stroke: #b0b0b0; stroke-width: 0.8; stroke-linecap: square"/>
     </g>
     <g id="line2d_6">
      <g>
       <use xlink:href="#md931dc28f2" x="203.694545" y="307.584" style="stroke: #000000; stroke-width: 0.8"/>
      </g>
     </g>
     <g id="text_3">
      <!-- 400 -->
      <g transform="translate(194.150795 322.182437) scale(0.1 -0.1)">
       <defs>
        <path id="DejaVuSans-34" d="M 2419 4116 
L 825 1625 
L 2419 1625 
L 2419 4116 
z
M 2253 4666 
L 3047 4666 
L 3047 1625 
L 3713 1625 
L 3713 1100 
L 3047 1100 
L 3047 0 
L 2419 0 
L 2419 1100 
L 313 1100 
L 313 1709 
L 2253 4666 
z
" transform="scale(0.015625)"/>
       </defs>
       <use xlink:href="#DejaVuSans-34"/>
       <use xlink:href="#DejaVuSans-30" x="63.623047"/>
       <use xlink:href="#DejaVuSans-30" x="127.246094"/>
      </g>
     </g>
    </g>
    <g id="xtick_4">
     <g id="line2d_7">
      <path d="M 268.625455 307.584 
L 268.625455 41.472 
" clip-path="url(#p9e2cd04a17)" style="fill: none; stroke: #b0b0b0; stroke-width: 0.8; stroke-linecap: square"/>
     </g>
     <g id="line2d_8">
      <g>
       <use xlink:href="#md931dc28f2" x="268.625455" y="307.584" style="stroke: #000000; stroke-width: 0.8"/>
      </g>
     </g>
     <g id="text_4">
      <!-- 450 -->
      <g transform="translate(259.081705 322.182437) scale(0.1 -0.1)">
       <use xlink:href="#DejaVuSans-34"/>
       <use xlink:href="#DejaVuSans-35" x="63.623047"/>
       <use xlink:href="#DejaVuSans-30" x="127.246094"/>
      </g>
     </g>
    </g>
    <g id="xtick_5">
     <g id="line2d_9">
      <path d="M 333.556364 307.584 
L 333.556364 41.472 
" clip-path="url(#p9e2cd04a17)" style="fill: none; stroke: #b0b0b0; stroke-width: 0.8; stroke-linecap: square"/>
     </g>
     <g id="line2d_10">
      <g>
       <use xlink:href="#md931dc28f2" x="333.556364" y="307.584" style="stroke: #000000; stroke-width: 0.8"/>
      </g>
     </g>
     <g id="text_5">
      <!-- 500 -->
      <g transform="translate(324.012614 322.182437) scale(0.1 -0.1)">
       <use xlink:href="#DejaVuSans-35"/>
       <use xlink:href="#DejaVuSans-30" x="63.623047"/>
       <use xlink:href="#DejaVuSans-30" x="127.246094"/>
      </g>
     </g>
    </g>
    <g id="xtick_6">
     <g id="line2d_11">
      <path d="M 398.487273 307.584 
L 398.487273 41.472 
" clip-path="url(#p9e2cd04a17)" style="fill: none; stroke: #b0b0b0; stroke-width: 0.8; stroke-linecap: square"/>
     </g>
     <g id="line2d_12">
      <g>
       <use xlink:href="#md931dc28f2" x="398.487273" y="307.584" style="stroke: #000000; stroke-width: 0.8"/>
      </g>
     </g>
     <g id="text_6">
      <!-- 550 -->
      <g transform="translate(388.943523 322.182437) scale(0.1 -0.1)">
       <use xlink:href="#DejaVuSans-35"/>
       <use xlink:href="#DejaVuSans-35" x="63.623047"/>
       <use xlink:href="#DejaVuSans-30" x="127.246094"/>
      </g>
     </g>
    </g>
    <g id="text_7">
     <!-- Temperature (K) -->
     <g transform="translate(195.720937 335.860562) scale(0.1 -0.1)">
      <defs>
       <path id="DejaVuSans-54" d="M -19 4666 
L 3928 4666 
L 3928 4134 
L 2272 4134 
L 2272 0 
L 1638 0 
L 1638 4134 
L -19 4134 
L -19 4666 
z
" transform="scale(0.015625)"/>
       <path id="DejaVuSans-65" d="M 3597 1894 
L 3597 1613 
L 953 1613 
Q 991 1019 1311 708 
Q 1631 397 2203 397 
Q 2534 397 2845 478 
Q 3156 559 3463 722 
L 3463 178 
Q 3153 47 2828 -22 
Q 2503 -91 2169 -91 
Q 1331 -91 842 396 
Q 353 884 353 1716 
Q 353 2575 817 3079 
Q 1281 3584 2069 3584 
Q 2775 3584 3186 3129 
Q 3597 2675 3597 1894 
z
M 3022 2063 
Q 3016 2534 2758 2815 
Q 2500 3097 2075 3097 
Q 1594 3097 1305 2825 
Q 1016 2553 972 2059 
L 3022 2063 
z
" transform="scale(0.015625)"/>
       <path id="DejaVuSans-6d" d="M 3328 2828 
Q 3544 3216 3844 3400 
Q 4144 3584 4550 3584 
Q 5097 3584 5394 3201 
Q 5691 2819 5691 2113 
L 5691 0 
L 5113 0 
L 5113 2094 
Q 5113 2597 4934 2840 
Q 4756 3084 4391 3084 
Q 3944 3084 3684 2787 
Q 3425 2491 3425 1978 
L 3425 0 
L 2847 0 
L 2847 2094 
Q 2847 2600 2669 2842 
Q 2491 3084 2119 3084 
Q 1678 3084 1418 2786 
Q 1159 2488 1159 1978 
L 1159 0 
L 581 0 
L 581 3500 
L 1159 3500 
L 1159 2956 
Q 1356 3278 1631 3431 
Q 1906 3584 2284 3584 
Q 2666 3584 2933 3390 
Q 3200 3197 3328 2828 
z
" transform="scale(0.015625)"/>
       <path id="DejaVuSans-70" d="M 1159 525 
L 1159 -1331 
L 581 -1331 
L 581 3500 
L 1159 3500 
L 1159 2969 
Q 1341 3281 1617 3432 
Q 1894 3584 2278 3584 
Q 2916 3584 3314 3078 
Q 3713 2572 3713 1747 
Q 3713 922 3314 415 
Q 2916 -91 2278 -91 
Q 1894 -91 1617 61 
Q 1341 213 1159 525 
z
M 3116 1747 
Q 3116 2381 2855 2742 
Q 2594 3103 2138 3103 
Q 1681 3103 1420 2742 
Q 1159 2381 1159 1747 
Q 1159 1113 1420 752 
Q 1681 391 2138 391 
Q 2594 391 2855 752 
Q 3116 1113 3116 1747 
z
" transform="scale(0.015625)"/>
       <path id="DejaVuSans-72" d="M 2631 2963 
Q 2534 3019 2420 3045 
Q 2306 3072 2169 3072 
Q 1681 3072 1420 2755 
Q 1159 2438 1159 1844 
L 1159 0 
L 581 0 
L 581 3500 
L 1159 3500 
L 1159 2956 
Q 1341 3275 1631 3429 
Q 1922 3584 2338 3584 
Q 2397 3584 2469 3576 
Q 2541 3569 2628 3553 
L 2631 2963 
z
" transform="scale(0.015625)"/>
       <path id="DejaVuSans-61" d="M 2194 1759 
Q 1497 1759 1228 1600 
Q 959 1441 959 1056 
Q 959 750 1161 570 
Q 1363 391 1709 391 
Q 2188 391 2477 730 
Q 2766 1069 2766 1631 
L 2766 1759 
L 2194 1759 
z
M 3341 1997 
L 3341 0 
L 2766 0 
L 2766 531 
Q 2569 213 2275 61 
Q 1981 -91 1556 -91 
Q 1019 -91 701 211 
Q 384 513 384 1019 
Q 384 1609 779 1909 
Q 1175 2209 1959 2209 
L 2766 2209 
L 2766 2266 
Q 2766 2663 2505 2880 
Q 2244 3097 1772 3097 
Q 1472 3097 1187 3025 
Q 903 2953 641 2809 
L 641 3341 
Q 956 3463 1253 3523 
Q 1550 3584 1831 3584 
Q 2591 3584 2966 3190 
Q 3341 2797 3341 1997 
z
" transform="scale(0.015625)"/>
       <path id="DejaVuSans-74" d="M 1172 4494 
L 1172 3500 
L 2356 3500 
L 2356 3053 
L 1172 3053 
L 1172 1153 
Q 1172 725 1289 603 
Q 1406 481 1766 481 
L 2356 481 
L 2356 0 
L 1766 0 
Q 1100 0 847 248 
Q 594 497 594 1153 
L 594 3053 
L 172 3053 
L 172 3500 
L 594 3500 
L 594 4494 
L 1172 4494 
z
" transform="scale(0.015625)"/>
       <path id="DejaVuSans-75" d="M 544 1381 
L 544 3500 
L 1119 3500 
L 1119 1403 
Q 1119 906 1312 657 
Q 1506 409 1894 409 
Q 2359 409 2629 706 
Q 2900 1003 2900 1516 
L 2900 3500 
L 3475 3500 
L 3475 0 
L 2900 0 
L 2900 538 
Q 2691 219 2414 64 
Q 2138 -91 1772 -91 
Q 1169 -91 856 284 
Q 544 659 544 1381 
z
M 1991 3584 
L 1991 3584 
z
" transform="scale(0.015625)"/>
       <path id="DejaVuSans-20" transform="scale(0.015625)"/>
       <path id="DejaVuSans-28" d="M 1984 4856 
Q 1566 4138 1362 3434 
Q 1159 2731 1159 2009 
Q 1159 1288 1364 580 
Q 1569 -128 1984 -844 
L 1484 -844 
Q 1016 -109 783 600 
Q 550 1309 550 2009 
Q 550 2706 781 3412 
Q 1013 4119 1484 4856 
L 1984 4856 
z
" transform="scale(0.015625)"/>
       <path id="DejaVuSans-4b" d="M 628 4666 
L 1259 4666 
L 1259 2694 
L 3353 4666 
L 4166 4666 
L 1850 2491 
L 4331 0 
L 3500 0 
L 1259 2247 
L 1259 0 
L 628 0 
L 628 4666 
z
" transform="scale(0.015625)"/>
       <path id="DejaVuSans-29" d="M 513 4856 
L 1013 4856 
Q 1481 4119 1714 3412 
Q 1947 2706 1947 2009 
Q 1947 1309 1714 600 
Q 1481 -109 1013 -844 
L 513 -844 
Q 928 -128 1133 580 
Q 1338 1288 1338 2009 
Q 1338 2731 1133 3434 
Q 928 4138 513 4856 
z
" transform="scale(0.015625)"/>
      </defs>
      <use xlink:href="#DejaVuSans-54"/>
      <use xlink:href="#DejaVuSans-65" x="44.083984"/>
      <use xlink:href="#DejaVuSans-6d" x="105.607422"/>
      <use xlink:href="#DejaVuSans-70" x="203.019531"/>
      <use xlink:href="#DejaVuSans-65" x="266.496094"/>
      <use xlink:href="#DejaVuSans-72" x="328.019531"/>
      <use xlink:href="#DejaVuSans-61" x="369.132812"/>
      <use xlink:href="#DejaVuSans-74" x="430.412109"/>
      <use xlink:href="#DejaVuSans-75" x="469.621094"/>
      <use xlink:href="#DejaVuSans-72" x="533"/>
      <use xlink:href="#DejaVuSans-65" x="571.863281"/>
      <use xlink:href="#DejaVuSans-20" x="633.386719"/>
      <use xlink:href="#DejaVuSans-28" x="665.173828"/>
      <use xlink:href="#DejaVuSans-4b" x="704.1875"/>
      <use xlink:href="#DejaVuSans-29" x="769.763672"/>
     </g>
    </g>
   </g>
   <g id="matplotlib.axis_2">
    <g id="ytick_1">
     <g id="line2d_13">
      <path d="M 57.6 295.427521 
L 414.72 295.427521 
" clip-path="url(#p9e2cd04a17)" style="fill: none; stroke: #b0b0b0; stroke-width: 0.8; stroke-linecap: square"/>
     </g>
     <g id="line2d_14">
      <defs>
       <path id="m297d1c8074" d="M 0 0 
L -3.5 0 
" style="stroke: #000000; stroke-width: 0.8"/>
      </defs>
      <g>
       <use xlink:href="#m297d1c8074" x="57.6" y="295.427521" style="stroke: #000000; stroke-width: 0.8"/>
      </g>
     </g>
     <g id="text_8">
      <!-- 0.0 -->
      <g transform="translate(34.696875 299.22674) scale(0.1 -0.1)">
       <defs>
        <path id="DejaVuSans-2e" d="M 684 794 
L 1344 794 
L 1344 0 
L 684 0 
L 684 794 
z
" transform="scale(0.015625)"/>
       </defs>
       <use xlink:href="#DejaVuSans-30"/>
       <use xlink:href="#DejaVuSans-2e" x="63.623047"/>
       <use xlink:href="#DejaVuSans-30" x="95.410156"/>
      </g>
     </g>
    </g>
    <g id="ytick_2">
     <g id="line2d_15">
      <path d="M 57.6 247.044338 
L 414.72 247.044338 
" clip-path="url(#p9e2cd04a17)" style="fill: none; stroke: #b0b0b0; stroke-width: 0.8; stroke-linecap: square"/>
     </g>
     <g id="line2d_16">
      <g>
       <use xlink:href="#m297d1c8074" x="57.6" y="247.044338" style="stroke: #000000; stroke-width: 0.8"/>
      </g>
     </g>
     <g id="text_9">
      <!-- 0.2 -->
      <g transform="translate(34.696875 250.843557) scale(0.1 -0.1)">
       <defs>
        <path id="DejaVuSans-32" d="M 1228 531 
L 3431 531 
L 3431 0 
L 469 0 
L 469 531 
Q 828 903 1448 1529 
Q 2069 2156 2228 2338 
Q 2531 2678 2651 2914 
Q 2772 3150 2772 3378 
Q 2772 3750 2511 3984 
Q 2250 4219 1831 4219 
Q 1534 4219 1204 4116 
Q 875 4013 500 3803 
L 500 4441 
Q 881 4594 1212 4672 
Q 1544 4750 1819 4750 
Q 2544 4750 2975 4387 
Q 3406 4025 3406 3419 
Q 3406 3131 3298 2873 
Q 3191 2616 2906 2266 
Q 2828 2175 2409 1742 
Q 1991 1309 1228 531 
z
" transform="scale(0.015625)"/>
       </defs>
       <use xlink:href="#DejaVuSans-30"/>
       <use xlink:href="#DejaVuSans-2e" x="63.623047"/>
       <use xlink:href="#DejaVuSans-32" x="95.410156"/>
      </g>
     </g>
    </g>
    <g id="ytick_3">
     <g id="line2d_17">
      <path d="M 57.6 198.661156 
L 414.72 198.661156 
" clip-path="url(#p9e2cd04a17)" style="fill: none; stroke: #b0b0b0; stroke-width: 0.8; stroke-linecap: square"/>
     </g>
     <g id="line2d_18">
      <g>
       <use xlink:href="#m297d1c8074" x="57.6" y="198.661156" style="stroke: #000000; stroke-width: 0.8"/>
      </g>
     </g>
     <g id="text_10">
      <!-- 0.4 -->
      <g transform="translate(34.696875 202.460374) scale(0.1 -0.1)">
       <use xlink:href="#DejaVuSans-30"/>
       <use xlink:href="#DejaVuSans-2e" x="63.623047"/>
       <use xlink:href="#DejaVuSans-34" x="95.410156"/>
      </g>
     </g>
    </g>
    <g id="ytick_4">
     <g id="line2d_19">
      <path d="M 57.6 150.277973 
L 414.72 150.277973 
" clip-path="url(#p9e2cd04a17)" style="fill: none; stroke: #b0b0b0; stroke-width: 0.8; stroke-linecap: square"/>
     </g>
     <g id="line2d_20">
      <g>
       <use xlink:href="#m297d1c8074" x="57.6" y="150.277973" style="stroke: #000000; stroke-width: 0.8"/>
      </g>
     </g>
     <g id="text_11">
      <!-- 0.6 -->
      <g transform="translate(34.696875 154.077192) scale(0.1 -0.1)">
       <defs>
        <path id="DejaVuSans-36" d="M 2113 2584 
Q 1688 2584 1439 2293 
Q 1191 2003 1191 1497 
Q 1191 994 1439 701 
Q 1688 409 2113 409 
Q 2538 409 2786 701 
Q 3034 994 3034 1497 
Q 3034 2003 2786 2293 
Q 2538 2584 2113 2584 
z
M 3366 4563 
L 3366 3988 
Q 3128 4100 2886 4159 
Q 2644 4219 2406 4219 
Q 1781 4219 1451 3797 
Q 1122 3375 1075 2522 
Q 1259 2794 1537 2939 
Q 1816 3084 2150 3084 
Q 2853 3084 3261 2657 
Q 3669 2231 3669 1497 
Q 3669 778 3244 343 
Q 2819 -91 2113 -91 
Q 1303 -91 875 529 
Q 447 1150 447 2328 
Q 447 3434 972 4092 
Q 1497 4750 2381 4750 
Q 2619 4750 2861 4703 
Q 3103 4656 3366 4563 
z
" transform="scale(0.015625)"/>
       </defs>
       <use xlink:href="#DejaVuSans-30"/>
       <use xlink:href="#DejaVuSans-2e" x="63.623047"/>
       <use xlink:href="#DejaVuSans-36" x="95.410156"/>
      </g>
     </g>
    </g>
    <g id="ytick_5">
     <g id="line2d_21">
      <path d="M 57.6 101.89479 
L 414.72 101.89479 
" clip-path="url(#p9e2cd04a17)" style="fill: none; stroke: #b0b0b0; stroke-width: 0.8; stroke-linecap: square"/>
     </g>
     <g id="line2d_22">
      <g>
       <use xlink:href="#m297d1c8074" x="57.6" y="101.89479" style="stroke: #000000; stroke-width: 0.8"/>
      </g>
     </g>
     <g id="text_12">
      <!-- 0.8 -->
      <g transform="translate(34.696875 105.694009) scale(0.1 -0.1)">
       <defs>
        <path id="DejaVuSans-38" d="M 2034 2216 
Q 1584 2216 1326 1975 
Q 1069 1734 1069 1313 
Q 1069 891 1326 650 
Q 1584 409 2034 409 
Q 2484 409 2743 651 
Q 3003 894 3003 1313 
Q 3003 1734 2745 1975 
Q 2488 2216 2034 2216 
z
M 1403 2484 
Q 997 2584 770 2862 
Q 544 3141 544 3541 
Q 544 4100 942 4425 
Q 1341 4750 2034 4750 
Q 2731 4750 3128 4425 
Q 3525 4100 3525 3541 
Q 3525 3141 3298 2862 
Q 3072 2584 2669 2484 
Q 3125 2378 3379 2068 
Q 3634 1759 3634 1313 
Q 3634 634 3220 271 
Q 2806 -91 2034 -91 
Q 1263 -91 848 271 
Q 434 634 434 1313 
Q 434 1759 690 2068 
Q 947 2378 1403 2484 
z
M 1172 3481 
Q 1172 3119 1398 2916 
Q 1625 2713 2034 2713 
Q 2441 2713 2670 2916 
Q 2900 3119 2900 3481 
Q 2900 3844 2670 4047 
Q 2441 4250 2034 4250 
Q 1625 4250 1398 4047 
Q 1172 3844 1172 3481 
z
" transform="scale(0.015625)"/>
       </defs>
       <use xlink:href="#DejaVuSans-30"/>
       <use xlink:href="#DejaVuSans-2e" x="63.623047"/>
       <use xlink:href="#DejaVuSans-38" x="95.410156"/>
      </g>
     </g>
    </g>
    <g id="ytick_6">
     <g id="line2d_23">
      <path d="M 57.6 53.511608 
L 414.72 53.511608 
" clip-path="url(#p9e2cd04a17)" style="fill: none; stroke: #b0b0b0; stroke-width: 0.8; stroke-linecap: square"/>
     </g>
     <g id="line2d_24">
      <g>
       <use xlink:href="#m297d1c8074" x="57.6" y="53.511608" style="stroke: #000000; stroke-width: 0.8"/>
      </g>
     </g>
     <g id="text_13">
      <!-- 1.0 -->
      <g transform="translate(34.696875 57.310826) scale(0.1 -0.1)">
       <defs>
        <path id="DejaVuSans-31" d="M 794 531 
L 1825 531 
L 1825 4091 
L 703 3866 
L 703 4441 
L 1819 4666 
L 2450 4666 
L 2450 531 
L 3481 531 
L 3481 0 
L 794 0 
L 794 531 
z
" transform="scale(0.015625)"/>
       </defs>
       <use xlink:href="#DejaVuSans-31"/>
       <use xlink:href="#DejaVuSans-2e" x="63.623047"/>
       <use xlink:href="#DejaVuSans-30" x="95.410156"/>
      </g>
     </g>
    </g>
    <g id="text_14">
     <!-- Conversion -->
     <g transform="translate(28.617187 202.560812) rotate(-90) scale(0.1 -0.1)">
      <defs>
       <path id="DejaVuSans-43" d="M 4122 4306 
L 4122 3641 
Q 3803 3938 3442 4084 
Q 3081 4231 2675 4231 
Q 1875 4231 1450 3742 
Q 1025 3253 1025 2328 
Q 1025 1406 1450 917 
Q 1875 428 2675 428 
Q 3081 428 3442 575 
Q 3803 722 4122 1019 
L 4122 359 
Q 3791 134 3420 21 
Q 3050 -91 2638 -91 
Q 1578 -91 968 557 
Q 359 1206 359 2328 
Q 359 3453 968 4101 
Q 1578 4750 2638 4750 
Q 3056 4750 3426 4639 
Q 3797 4528 4122 4306 
z
" transform="scale(0.015625)"/>
       <path id="DejaVuSans-6f" d="M 1959 3097 
Q 1497 3097 1228 2736 
Q 959 2375 959 1747 
Q 959 1119 1226 758 
Q 1494 397 1959 397 
Q 2419 397 2687 759 
Q 2956 1122 2956 1747 
Q 2956 2369 2687 2733 
Q 2419 3097 1959 3097 
z
M 1959 3584 
Q 2709 3584 3137 3096 
Q 3566 2609 3566 1747 
Q 3566 888 3137 398 
Q 2709 -91 1959 -91 
Q 1206 -91 779 398 
Q 353 888 353 1747 
Q 353 2609 779 3096 
Q 1206 3584 1959 3584 
z
" transform="scale(0.015625)"/>
       <path id="DejaVuSans-6e" d="M 3513 2113 
L 3513 0 
L 2938 0 
L 2938 2094 
Q 2938 2591 2744 2837 
Q 2550 3084 2163 3084 
Q 1697 3084 1428 2787 
Q 1159 2491 1159 1978 
L 1159 0 
L 581 0 
L 581 3500 
L 1159 3500 
L 1159 2956 
Q 1366 3272 1645 3428 
Q 1925 3584 2291 3584 
Q 2894 3584 3203 3211 
Q 3513 2838 3513 2113 
z
" transform="scale(0.015625)"/>
       <path id="DejaVuSans-76" d="M 191 3500 
L 800 3500 
L 1894 563 
L 2988 3500 
L 3597 3500 
L 2284 0 
L 1503 0 
L 191 3500 
z
" transform="scale(0.015625)"/>
       <path id="DejaVuSans-73" d="M 2834 3397 
L 2834 2853 
Q 2591 2978 2328 3040 
Q 2066 3103 1784 3103 
Q 1356 3103 1142 2972 
Q 928 2841 928 2578 
Q 928 2378 1081 2264 
Q 1234 2150 1697 2047 
L 1894 2003 
Q 2506 1872 2764 1633 
Q 3022 1394 3022 966 
Q 3022 478 2636 193 
Q 2250 -91 1575 -91 
Q 1294 -91 989 -36 
Q 684 19 347 128 
L 347 722 
Q 666 556 975 473 
Q 1284 391 1588 391 
Q 1994 391 2212 530 
Q 2431 669 2431 922 
Q 2431 1156 2273 1281 
Q 2116 1406 1581 1522 
L 1381 1569 
Q 847 1681 609 1914 
Q 372 2147 372 2553 
Q 372 3047 722 3315 
Q 1072 3584 1716 3584 
Q 2034 3584 2315 3537 
Q 2597 3491 2834 3397 
z
" transform="scale(0.015625)"/>
       <path id="DejaVuSans-69" d="M 603 3500 
L 1178 3500 
L 1178 0 
L 603 0 
L 603 3500 
z
M 603 4863 
L 1178 4863 
L 1178 4134 
L 603 4134 
L 603 4863 
z
" transform="scale(0.015625)"/>
      </defs>
      <use xlink:href="#DejaVuSans-43"/>
      <use xlink:href="#DejaVuSans-6f" x="69.824219"/>
      <use xlink:href="#DejaVuSans-6e" x="131.005859"/>
      <use xlink:href="#DejaVuSans-76" x="194.384766"/>
      <use xlink:href="#DejaVuSans-65" x="253.564453"/>
      <use xlink:href="#DejaVuSans-72" x="315.087891"/>
      <use xlink:href="#DejaVuSans-73" x="356.201172"/>
      <use xlink:href="#DejaVuSans-69" x="408.300781"/>
      <use xlink:href="#DejaVuSans-6f" x="436.083984"/>
      <use xlink:href="#DejaVuSans-6e" x="497.265625"/>
     </g>
    </g>
   </g>
   <g id="line2d_25">
    <path d="M 73.832727 53.568 
L 77.112066 53.581176 
L 80.391405 53.597133 
L 83.670744 53.616391 
L 86.950083 53.63956 
L 90.229421 53.667346 
L 93.50876 53.700564 
L 96.788099 53.740157 
L 100.067438 53.78721 
L 103.346777 53.842964 
L 106.626116 53.908841 
L 109.905455 53.986462 
L 113.184793 54.077667 
L 116.464132 54.184547 
L 119.743471 54.30946 
L 123.02281 54.455068 
L 126.302149 54.624357 
L 129.581488 54.820676 
L 132.860826 55.04776 
L 136.140165 55.309769 
L 139.419504 55.611314 
L 142.698843 55.957491 
L 145.978182 56.353911 
L 149.257521 56.806726 
L 152.53686 57.322655 
L 155.816198 57.908999 
L 159.095537 58.573658 
L 162.374876 59.325131 
L 165.654215 60.172513 
L 168.933554 61.12547 
L 172.212893 62.194208 
L 175.492231 63.389419 
L 178.77157 64.722205 
L 182.050909 66.203984 
L 185.330248 67.846363 
L 188.609587 69.660991 
L 191.888926 71.659381 
L 195.168264 73.852698 
L 198.447603 76.251527 
L 201.726942 78.865613 
L 205.006281 81.70358 
L 208.28562 84.772631 
L 211.564959 88.078251 
L 214.844298 91.623905 
L 218.123636 95.410755 
L 221.402975 99.437406 
L 224.682314 103.699694 
L 227.961653 108.190529 
L 231.240992 112.899812 
L 234.520331 117.814422 
L 237.799669 122.918298 
L 241.079008 128.192609 
L 244.358347 133.616011 
L 247.637686 139.164989 
L 250.917025 144.81427 
L 254.196364 150.537295 
L 257.475702 156.306724 
L 260.755041 162.094965 
L 264.03438 167.874696 
L 267.313719 173.619364 
L 270.593058 179.303644 
L 273.872397 184.903834 
L 277.151736 190.39819 
L 280.431074 195.76718 
L 283.710413 200.993659 
L 286.989752 206.062975 
L 290.269091 210.96299 
L 293.54843 215.684052 
L 296.827769 220.218898 
L 300.107107 224.562522 
L 303.386446 228.712008 
L 306.665785 232.66633 
L 309.945124 236.426152 
L 313.224463 239.993609 
L 316.503802 243.372101 
L 319.78314 246.566079 
L 323.062479 249.580862 
L 326.341818 252.422449 
L 329.621157 255.097356 
L 332.900496 257.612476 
L 336.179835 259.974942 
L 339.459174 262.192023 
L 342.738512 264.271024 
L 346.017851 266.219208 
L 349.29719 268.043728 
L 352.576529 269.751581 
L 355.855868 271.349556 
L 359.135207 272.844213 
L 362.414545 274.24185 
L 365.693884 275.548494 
L 368.973223 276.769888 
L 372.252562 277.911486 
L 375.531901 278.978454 
L 378.81124 279.975672 
L 382.090579 280.907739 
L 385.369917 281.778981 
L 388.649256 282.593462 
L 391.928595 283.35499 
L 395.207934 284.067131 
L 398.487273 284.733223 
" clip-path="url(#p9e2cd04a17)" style="fill: none; stroke: #1f77b4; stroke-width: 1.5; stroke-linecap: square"/>
   </g>
   <g id="line2d_26">
    <path d="M 73.832727 295.488 
L 76.122566 294.777054 
L 78.412404 294.066108 
L 80.702242 293.355162 
L 82.992081 292.644216 
L 85.281919 291.933271 
L 87.571758 291.222325 
L 89.861596 290.511379 
L 92.151434 289.800433 
L 94.441273 289.089487 
L 96.731111 288.378541 
L 99.02095 287.667595 
L 101.310788 286.956649 
L 103.600626 286.245704 
L 105.890465 285.534758 
L 108.180303 284.823812 
L 110.470142 284.112866 
L 112.75998 283.40192 
L 115.049818 282.690974 
L 117.339657 281.980028 
L 119.629495 281.269082 
L 121.919334 280.558137 
L 124.209172 279.847191 
L 126.49901 279.136245 
L 128.788849 278.425299 
L 131.078687 277.714353 
L 133.368526 277.003407 
L 135.658364 276.292461 
L 137.948202 275.581515 
L 140.238041 274.870569 
L 142.527879 274.159624 
L 144.817718 273.448678 
L 147.107556 272.737732 
L 149.397394 272.026786 
L 151.687233 271.31584 
L 153.977071 270.604894 
L 156.26691 269.893948 
L 158.556748 269.183002 
L 160.846586 268.472057 
L 163.136425 267.761111 
L 165.426263 267.050165 
L 167.716102 266.339219 
L 170.00594 265.628273 
L 172.295778 264.917327 
L 174.585617 264.206381 
L 176.875455 263.495435 
L 179.165294 262.784489 
L 181.455132 262.073544 
L 183.74497 261.362598 
L 186.034809 260.651652 
L 188.324647 259.940706 
L 190.614486 259.22976 
L 192.904324 258.518814 
L 195.194162 257.807868 
L 197.484001 257.096922 
L 199.773839 256.385977 
L 202.063678 255.675031 
L 204.353516 254.964085 
L 206.643354 254.253139 
L 208.933193 253.542193 
L 211.223031 252.831247 
L 213.51287 252.120301 
L 215.802708 251.409355 
L 218.092546 250.69841 
L 220.382385 249.987464 
L 222.672223 249.276518 
L 224.962062 248.565572 
L 227.2519 247.854626 
L 229.541738 247.14368 
L 231.831577 246.432734 
L 234.121415 245.721788 
L 236.411254 245.010842 
L 238.701092 244.299897 
L 240.99093 243.588951 
L 243.280769 242.878005 
L 245.570607 242.167059 
L 247.860446 241.456113 
L 250.150284 240.745167 
L 252.440122 240.034221 
L 254.729961 239.323275 
L 257.019799 238.61233 
L 259.309638 237.901384 
L 261.599476 237.190438 
L 263.889314 236.479492 
L 266.179153 235.768546 
L 268.468991 235.0576 
L 270.75883 234.346654 
L 273.048668 233.635708 
L 275.338506 232.924763 
L 277.628345 232.213817 
L 279.918183 231.502871 
L 282.208022 230.791925 
L 284.49786 230.080979 
L 286.787698 229.370033 
L 289.077537 228.659087 
L 291.367375 227.948141 
L 293.657214 227.237195 
L 295.947052 226.52625 
L 298.23689 225.815304 
L 300.526729 225.104358 
" clip-path="url(#p9e2cd04a17)" style="fill: none; stroke: #ff7f0e; stroke-width: 1.5; stroke-linecap: square"/>
   </g>
   <g id="line2d_27">
    <defs>
     <path id="m3ca8748b2e" d="M 0 3 
C 0.795609 3 1.55874 2.683901 2.12132 2.12132 
C 2.683901 1.55874 3 0.795609 3 0 
C 3 -0.795609 2.683901 -1.55874 2.12132 -2.12132 
C 1.55874 -2.683901 0.795609 -3 0 -3 
C -0.795609 -3 -1.55874 -2.683901 -2.12132 -2.12132 
C -2.683901 -1.55874 -3 -0.795609 -3 0 
C -3 0.795609 -2.683901 1.55874 -2.12132 2.12132 
C -1.55874 2.683901 -0.795609 3 0 3 
z
" style="stroke: #ff7f0e"/>
    </defs>
    <g clip-path="url(#p9e2cd04a17)">
     <use xlink:href="#m3ca8748b2e" x="300.526729" y="225.104358" style="fill: #ff7f0e; stroke: #ff7f0e"/>
    </g>
   </g>
   <g id="line2d_28">
    <path d="M 73.832727 225.104358 
L 76.122566 225.104358 
L 78.412404 225.104358 
L 80.702242 225.104358 
L 82.992081 225.104358 
L 85.281919 225.104358 
L 87.571758 225.104358 
L 89.861596 225.104358 
L 92.151434 225.104358 
L 94.441273 225.104358 
L 96.731111 225.104358 
L 99.02095 225.104358 
L 101.310788 225.104358 
L 103.600626 225.104358 
L 105.890465 225.104358 
L 108.180303 225.104358 
L 110.470142 225.104358 
L 112.75998 225.104358 
L 115.049818 225.104358 
L 117.339657 225.104358 
L 119.629495 225.104358 
L 121.919334 225.104358 
L 124.209172 225.104358 
L 126.49901 225.104358 
L 128.788849 225.104358 
L 131.078687 225.104358 
L 133.368526 225.104358 
L 135.658364 225.104358 
L 137.948202 225.104358 
L 140.238041 225.104358 
L 142.527879 225.104358 
L 144.817718 225.104358 
L 147.107556 225.104358 
L 149.397394 225.104358 
L 151.687233 225.104358 
L 153.977071 225.104358 
L 156.26691 225.104358 
L 158.556748 225.104358 
L 160.846586 225.104358 
L 163.136425 225.104358 
L 165.426263 225.104358 
L 167.716102 225.104358 
L 170.00594 225.104358 
L 172.295778 225.104358 
L 174.585617 225.104358 
L 176.875455 225.104358 
L 179.165294 225.104358 
L 181.455132 225.104358 
L 183.74497 225.104358 
L 186.034809 225.104358 
L 188.324647 225.104358 
L 190.614486 225.104358 
L 192.904324 225.104358 
L 195.194162 225.104358 
L 197.484001 225.104358 
L 199.773839 225.104358 
L 202.063678 225.104358 
L 204.353516 225.104358 
L 206.643354 225.104358 
L 208.933193 225.104358 
L 211.223031 225.104358 
L 213.51287 225.104358 
L 215.802708 225.104358 
L 218.092546 225.104358 
L 220.382385 225.104358 
L 222.672223 225.104358 
L 224.962062 225.104358 
L 227.2519 225.104358 
L 229.541738 225.104358 
L 231.831577 225.104358 
L 234.121415 225.104358 
L 236.411254 225.104358 
L 238.701092 225.104358 
L 240.99093 225.104358 
L 243.280769 225.104358 
L 245.570607 225.104358 
L 247.860446 225.104358 
L 250.150284 225.104358 
L 252.440122 225.104358 
L 254.729961 225.104358 
L 257.019799 225.104358 
L 259.309638 225.104358 
L 261.599476 225.104358 
L 263.889314 225.104358 
L 266.179153 225.104358 
L 268.468991 225.104358 
L 270.75883 225.104358 
L 273.048668 225.104358 
L 275.338506 225.104358 
L 277.628345 225.104358 
L 279.918183 225.104358 
L 282.208022 225.104358 
L 284.49786 225.104358 
L 286.787698 225.104358 
L 289.077537 225.104358 
L 291.367375 225.104358 
L 293.657214 225.104358 
L 295.947052 225.104358 
L 298.23689 225.104358 
L 300.526729 225.104358 
" clip-path="url(#p9e2cd04a17)" style="fill: none; stroke-dasharray: 5.55,2.4; stroke-dashoffset: 0; stroke: #ff7f0e; stroke-width: 1.5"/>
   </g>
   <g id="line2d_29">
    <path d="M 73.832727 225.164837 
L 75.745352 224.571008 
L 77.657977 223.977179 
L 79.570602 223.383349 
L 81.483227 222.78952 
L 83.395851 222.195691 
L 85.308476 221.601862 
L 87.221101 221.008033 
L 89.133726 220.414204 
L 91.046351 219.820375 
L 92.958976 219.226545 
L 94.8716 218.632716 
L 96.784225 218.038887 
L 98.69685 217.445058 
L 100.609475 216.851229 
L 102.5221 216.2574 
L 104.434725 215.663571 
L 106.34735 215.069742 
L 108.259974 214.475912 
L 110.172599 213.882083 
L 112.085224 213.288254 
L 113.997849 212.694425 
L 115.910474 212.100596 
L 117.823099 211.506767 
L 119.735723 210.912938 
L 121.648348 210.319109 
L 123.560973 209.725279 
L 125.473598 209.13145 
L 127.386223 208.537621 
L 129.298848 207.943792 
L 131.211472 207.349963 
L 133.124097 206.756134 
L 135.036722 206.162305 
L 136.949347 205.568475 
L 138.861972 204.974646 
L 140.774597 204.380817 
L 142.687221 203.786988 
L 144.599846 203.193159 
L 146.512471 202.59933 
L 148.425096 202.005501 
L 150.337721 201.411672 
L 152.250346 200.817842 
L 154.16297 200.224013 
L 156.075595 199.630184 
L 157.98822 199.036355 
L 159.900845 198.442526 
L 161.81347 197.848697 
L 163.726095 197.254868 
L 165.638719 196.661038 
L 167.551344 196.067209 
L 169.463969 195.47338 
L 171.376594 194.879551 
L 173.289219 194.285722 
L 175.201844 193.691893 
L 177.114468 193.098064 
L 179.027093 192.504235 
L 180.939718 191.910405 
L 182.852343 191.316576 
L 184.764968 190.722747 
L 186.677593 190.128918 
L 188.590218 189.535089 
L 190.502842 188.94126 
L 192.415467 188.347431 
L 194.328092 187.753601 
L 196.240717 187.159772 
L 198.153342 186.565943 
L 200.065967 185.972114 
L 201.978591 185.378285 
L 203.891216 184.784456 
L 205.803841 184.190627 
L 207.716466 183.596798 
L 209.629091 183.002968 
L 211.541716 182.409139 
L 213.45434 181.81531 
L 215.366965 181.221481 
L 217.27959 180.627652 
L 219.192215 180.033823 
L 221.10484 179.439994 
L 223.017465 178.846165 
L 224.930089 178.252335 
L 226.842714 177.658506 
L 228.755339 177.064677 
L 230.667964 176.470848 
L 232.580589 175.877019 
L 234.493214 175.28319 
L 236.405838 174.689361 
L 238.318463 174.095531 
L 240.231088 173.501702 
L 242.143713 172.907873 
L 244.056338 172.314044 
L 245.968963 171.720215 
L 247.881587 171.126386 
L 249.794212 170.532557 
L 251.706837 169.938728 
L 253.619462 169.344898 
L 255.532087 168.751069 
L 257.444712 168.15724 
L 259.357337 167.563411 
L 261.269961 166.969582 
L 263.182586 166.375753 
" clip-path="url(#p9e2cd04a17)" style="fill: none; stroke: #2ca02c; stroke-width: 1.5; stroke-linecap: square"/>
   </g>
   <g id="line2d_30">
    <defs>
     <path id="m850d5db431" d="M 0 3 
C 0.795609 3 1.55874 2.683901 2.12132 2.12132 
C 2.683901 1.55874 3 0.795609 3 0 
C 3 -0.795609 2.683901 -1.55874 2.12132 -2.12132 
C 1.55874 -2.683901 0.795609 -3 0 -3 
C -0.795609 -3 -1.55874 -2.683901 -2.12132 -2.12132 
C -2.683901 -1.55874 -3 -0.795609 -3 0 
C -3 0.795609 -2.683901 1.55874 -2.12132 2.12132 
C -1.55874 2.683901 -0.795609 3 0 3 
z
" style="stroke: #2ca02c"/>
    </defs>
    <g clip-path="url(#p9e2cd04a17)">
     <use xlink:href="#m850d5db431" x="263.182586" y="166.375753" style="fill: #2ca02c; stroke: #2ca02c"/>
    </g>
   </g>
   <g id="line2d_31">
    <path d="M 73.832727 166.375753 
L 75.745352 166.375753 
L 77.657977 166.375753 
L 79.570602 166.375753 
L 81.483227 166.375753 
L 83.395851 166.375753 
L 85.308476 166.375753 
L 87.221101 166.375753 
L 89.133726 166.375753 
L 91.046351 166.375753 
L 92.958976 166.375753 
L 94.8716 166.375753 
L 96.784225 166.375753 
L 98.69685 166.375753 
L 100.609475 166.375753 
L 102.5221 166.375753 
L 104.434725 166.375753 
L 106.34735 166.375753 
L 108.259974 166.375753 
L 110.172599 166.375753 
L 112.085224 166.375753 
L 113.997849 166.375753 
L 115.910474 166.375753 
L 117.823099 166.375753 
L 119.735723 166.375753 
L 121.648348 166.375753 
L 123.560973 166.375753 
L 125.473598 166.375753 
L 127.386223 166.375753 
L 129.298848 166.375753 
L 131.211472 166.375753 
L 133.124097 166.375753 
L 135.036722 166.375753 
L 136.949347 166.375753 
L 138.861972 166.375753 
L 140.774597 166.375753 
L 142.687221 166.375753 
L 144.599846 166.375753 
L 146.512471 166.375753 
L 148.425096 166.375753 
L 150.337721 166.375753 
L 152.250346 166.375753 
L 154.16297 166.375753 
L 156.075595 166.375753 
L 157.98822 166.375753 
L 159.900845 166.375753 
L 161.81347 166.375753 
L 163.726095 166.375753 
L 165.638719 166.375753 
L 167.551344 166.375753 
L 169.463969 166.375753 
L 171.376594 166.375753 
L 173.289219 166.375753 
L 175.201844 166.375753 
L 177.114468 166.375753 
L 179.027093 166.375753 
L 180.939718 166.375753 
L 182.852343 166.375753 
L 184.764968 166.375753 
L 186.677593 166.375753 
L 188.590218 166.375753 
L 190.502842 166.375753 
L 192.415467 166.375753 
L 194.328092 166.375753 
L 196.240717 166.375753 
L 198.153342 166.375753 
L 200.065967 166.375753 
L 201.978591 166.375753 
L 203.891216 166.375753 
L 205.803841 166.375753 
L 207.716466 166.375753 
L 209.629091 166.375753 
L 211.541716 166.375753 
L 213.45434 166.375753 
L 215.366965 166.375753 
L 217.27959 166.375753 
L 219.192215 166.375753 
L 221.10484 166.375753 
L 223.017465 166.375753 
L 224.930089 166.375753 
L 226.842714 166.375753 
L 228.755339 166.375753 
L 230.667964 166.375753 
L 232.580589 166.375753 
L 234.493214 166.375753 
L 236.405838 166.375753 
L 238.318463 166.375753 
L 240.231088 166.375753 
L 242.143713 166.375753 
L 244.056338 166.375753 
L 245.968963 166.375753 
L 247.881587 166.375753 
L 249.794212 166.375753 
L 251.706837 166.375753 
L 253.619462 166.375753 
L 255.532087 166.375753 
L 257.444712 166.375753 
L 259.357337 166.375753 
L 261.269961 166.375753 
L 263.182586 166.375753 
" clip-path="url(#p9e2cd04a17)" style="fill: none; stroke-dasharray: 5.55,2.4; stroke-dashoffset: 0; stroke: #2ca02c; stroke-width: 1.5"/>
   </g>
   <g id="line2d_32">
    <path d="M 73.832727 166.436232 
L 75.448845 165.934462 
L 77.064962 165.432692 
L 78.681079 164.930922 
L 80.297196 164.429152 
L 81.913313 163.927382 
L 83.529431 163.425613 
L 85.145548 162.923843 
L 86.761665 162.422073 
L 88.377782 161.920303 
L 89.9939 161.418533 
L 91.610017 160.916763 
L 93.226134 160.414993 
L 94.842251 159.913224 
L 96.458368 159.411454 
L 98.074486 158.909684 
L 99.690603 158.407914 
L 101.30672 157.906144 
L 102.922837 157.404374 
L 104.538955 156.902604 
L 106.155072 156.400835 
L 107.771189 155.899065 
L 109.387306 155.397295 
L 111.003424 154.895525 
L 112.619541 154.393755 
L 114.235658 153.891985 
L 115.851775 153.390215 
L 117.467892 152.888446 
L 119.08401 152.386676 
L 120.700127 151.884906 
L 122.316244 151.383136 
L 123.932361 150.881366 
L 125.548479 150.379596 
L 127.164596 149.877826 
L 128.780713 149.376057 
L 130.39683 148.874287 
L 132.012948 148.372517 
L 133.629065 147.870747 
L 135.245182 147.368977 
L 136.861299 146.867207 
L 138.477416 146.365437 
L 140.093534 145.863668 
L 141.709651 145.361898 
L 143.325768 144.860128 
L 144.941885 144.358358 
L 146.558003 143.856588 
L 148.17412 143.354818 
L 149.790237 142.853048 
L 151.406354 142.351279 
L 153.022472 141.849509 
L 154.638589 141.347739 
L 156.254706 140.845969 
L 157.870823 140.344199 
L 159.48694 139.842429 
L 161.103058 139.340659 
L 162.719175 138.83889 
L 164.335292 138.33712 
L 165.951409 137.83535 
L 167.567527 137.33358 
L 169.183644 136.83181 
L 170.799761 136.33004 
L 172.415878 135.82827 
L 174.031996 135.326501 
L 175.648113 134.824731 
L 177.26423 134.322961 
L 178.880347 133.821191 
L 180.496464 133.319421 
L 182.112582 132.817651 
L 183.728699 132.315881 
L 185.344816 131.814112 
L 186.960933 131.312342 
L 188.577051 130.810572 
L 190.193168 130.308802 
L 191.809285 129.807032 
L 193.425402 129.305262 
L 195.041519 128.803492 
L 196.657637 128.301723 
L 198.273754 127.799953 
L 199.889871 127.298183 
L 201.505988 126.796413 
L 203.122106 126.294643 
L 204.738223 125.792873 
L 206.35434 125.291103 
L 207.970457 124.789334 
L 209.586575 124.287564 
L 211.202692 123.785794 
L 212.818809 123.284024 
L 214.434926 122.782254 
L 216.051043 122.280484 
L 217.667161 121.778714 
L 219.283278 121.276945 
L 220.899395 120.775175 
L 222.515512 120.273405 
L 224.13163 119.771635 
L 225.747747 119.269865 
L 227.363864 118.768095 
L 228.979981 118.266325 
L 230.596099 117.764556 
L 232.212216 117.262786 
L 233.828333 116.761016 
" clip-path="url(#p9e2cd04a17)" style="fill: none; stroke: #d62728; stroke-width: 1.5; stroke-linecap: square"/>
   </g>
   <g id="line2d_33">
    <defs>
     <path id="m4cbe691fbf" d="M 0 3 
C 0.795609 3 1.55874 2.683901 2.12132 2.12132 
C 2.683901 1.55874 3 0.795609 3 0 
C 3 -0.795609 2.683901 -1.55874 2.12132 -2.12132 
C 1.55874 -2.683901 0.795609 -3 0 -3 
C -0.795609 -3 -1.55874 -2.683901 -2.12132 -2.12132 
C -2.683901 -1.55874 -3 -0.795609 -3 0 
C -3 0.795609 -2.683901 1.55874 -2.12132 2.12132 
C -1.55874 2.683901 -0.795609 3 0 3 
z
" style="stroke: #d62728"/>
    </defs>
    <g clip-path="url(#p9e2cd04a17)">
     <use xlink:href="#m4cbe691fbf" x="233.828333" y="116.761016" style="fill: #d62728; stroke: #d62728"/>
    </g>
   </g>
   <g id="line2d_34">
    <path d="M 73.832727 116.761016 
L 75.448845 116.761016 
L 77.064962 116.761016 
L 78.681079 116.761016 
L 80.297196 116.761016 
L 81.913313 116.761016 
L 83.529431 116.761016 
L 85.145548 116.761016 
L 86.761665 116.761016 
L 88.377782 116.761016 
L 89.9939 116.761016 
L 91.610017 116.761016 
L 93.226134 116.761016 
L 94.842251 116.761016 
L 96.458368 116.761016 
L 98.074486 116.761016 
L 99.690603 116.761016 
L 101.30672 116.761016 
L 102.922837 116.761016 
L 104.538955 116.761016 
L 106.155072 116.761016 
L 107.771189 116.761016 
L 109.387306 116.761016 
L 111.003424 116.761016 
L 112.619541 116.761016 
L 114.235658 116.761016 
L 115.851775 116.761016 
L 117.467892 116.761016 
L 119.08401 116.761016 
L 120.700127 116.761016 
L 122.316244 116.761016 
L 123.932361 116.761016 
L 125.548479 116.761016 
L 127.164596 116.761016 
L 128.780713 116.761016 
L 130.39683 116.761016 
L 132.012948 116.761016 
L 133.629065 116.761016 
L 135.245182 116.761016 
L 136.861299 116.761016 
L 138.477416 116.761016 
L 140.093534 116.761016 
L 141.709651 116.761016 
L 143.325768 116.761016 
L 144.941885 116.761016 
L 146.558003 116.761016 
L 148.17412 116.761016 
L 149.790237 116.761016 
L 151.406354 116.761016 
L 153.022472 116.761016 
L 154.638589 116.761016 
L 156.254706 116.761016 
L 157.870823 116.761016 
L 159.48694 116.761016 
L 161.103058 116.761016 
L 162.719175 116.761016 
L 164.335292 116.761016 
L 165.951409 116.761016 
L 167.567527 116.761016 
L 169.183644 116.761016 
L 170.799761 116.761016 
L 172.415878 116.761016 
L 174.031996 116.761016 
L 175.648113 116.761016 
L 177.26423 116.761016 
L 178.880347 116.761016 
L 180.496464 116.761016 
L 182.112582 116.761016 
L 183.728699 116.761016 
L 185.344816 116.761016 
L 186.960933 116.761016 
L 188.577051 116.761016 
L 190.193168 116.761016 
L 191.809285 116.761016 
L 193.425402 116.761016 
L 195.041519 116.761016 
L 196.657637 116.761016 
L 198.273754 116.761016 
L 199.889871 116.761016 
L 201.505988 116.761016 
L 203.122106 116.761016 
L 204.738223 116.761016 
L 206.35434 116.761016 
L 207.970457 116.761016 
L 209.586575 116.761016 
L 211.202692 116.761016 
L 212.818809 116.761016 
L 214.434926 116.761016 
L 216.051043 116.761016 
L 217.667161 116.761016 
L 219.283278 116.761016 
L 220.899395 116.761016 
L 222.515512 116.761016 
L 224.13163 116.761016 
L 225.747747 116.761016 
L 227.363864 116.761016 
L 228.979981 116.761016 
L 230.596099 116.761016 
L 232.212216 116.761016 
L 233.828333 116.761016 
" clip-path="url(#p9e2cd04a17)" style="fill: none; stroke-dasharray: 5.55,2.4; stroke-dashoffset: 0; stroke: #d62728; stroke-width: 1.5"/>
   </g>
   <g id="line2d_35">
    <path d="M 73.832727 116.821495 
L 75.108856 116.425284 
L 76.384984 116.029074 
L 77.661112 115.632863 
L 78.937241 115.236653 
L 80.213369 114.840442 
L 81.489497 114.444231 
L 82.765626 114.048021 
L 84.041754 113.65181 
L 85.317882 113.2556 
L 86.594011 112.859389 
L 87.870139 112.463179 
L 89.146267 112.066968 
L 90.422396 111.670757 
L 91.698524 111.274547 
L 92.974652 110.878336 
L 94.250781 110.482126 
L 95.526909 110.085915 
L 96.803038 109.689704 
L 98.079166 109.293494 
L 99.355294 108.897283 
L 100.631423 108.501073 
L 101.907551 108.104862 
L 103.183679 107.708652 
L 104.459808 107.312441 
L 105.735936 106.91623 
L 107.012064 106.52002 
L 108.288193 106.123809 
L 109.564321 105.727599 
L 110.840449 105.331388 
L 112.116578 104.935178 
L 113.392706 104.538967 
L 114.668834 104.142756 
L 115.944963 103.746546 
L 117.221091 103.350335 
L 118.497219 102.954125 
L 119.773348 102.557914 
L 121.049476 102.161704 
L 122.325604 101.765493 
L 123.601733 101.369282 
L 124.877861 100.973072 
L 126.153989 100.576861 
L 127.430118 100.180651 
L 128.706246 99.78444 
L 129.982375 99.388229 
L 131.258503 98.992019 
L 132.534631 98.595808 
L 133.81076 98.199598 
L 135.086888 97.803387 
L 136.363016 97.407177 
L 137.639145 97.010966 
L 138.915273 96.614755 
L 140.191401 96.218545 
L 141.46753 95.822334 
L 142.743658 95.426124 
L 144.019786 95.029913 
L 145.295915 94.633703 
L 146.572043 94.237492 
L 147.848171 93.841281 
L 149.1243 93.445071 
L 150.400428 93.04886 
L 151.676556 92.65265 
L 152.952685 92.256439 
L 154.228813 91.860229 
L 155.504941 91.464018 
L 156.78107 91.067807 
L 158.057198 90.671597 
L 159.333327 90.275386 
L 160.609455 89.879176 
L 161.885583 89.482965 
L 163.161712 89.086755 
L 164.43784 88.690544 
L 165.713968 88.294333 
L 166.990097 87.898123 
L 168.266225 87.501912 
L 169.542353 87.105702 
L 170.818482 86.709491 
L 172.09461 86.31328 
L 173.370738 85.91707 
L 174.646867 85.520859 
L 175.922995 85.124649 
L 177.199123 84.728438 
L 178.475252 84.332228 
L 179.75138 83.936017 
L 181.027508 83.539806 
L 182.303637 83.143596 
L 183.579765 82.747385 
L 184.855893 82.351175 
L 186.132022 81.954964 
L 187.40815 81.558754 
L 188.684279 81.162543 
L 189.960407 80.766332 
L 191.236535 80.370122 
L 192.512664 79.973911 
L 193.788792 79.577701 
L 195.06492 79.18149 
L 196.341049 78.78528 
L 197.617177 78.389069 
L 198.893305 77.992858 
L 200.169434 77.596648 
" clip-path="url(#p9e2cd04a17)" style="fill: none; stroke: #9467bd; stroke-width: 1.5; stroke-linecap: square"/>
   </g>
   <g id="line2d_36">
    <defs>
     <path id="md1d6d62d88" d="M 0 3 
C 0.795609 3 1.55874 2.683901 2.12132 2.12132 
C 2.683901 1.55874 3 0.795609 3 0 
C 3 -0.795609 2.683901 -1.55874 2.12132 -2.12132 
C 1.55874 -2.683901 0.795609 -3 0 -3 
C -0.795609 -3 -1.55874 -2.683901 -2.12132 -2.12132 
C -2.683901 -1.55874 -3 -0.795609 -3 0 
C -3 0.795609 -2.683901 1.55874 -2.12132 2.12132 
C -1.55874 2.683901 -0.795609 3 0 3 
z
" style="stroke: #9467bd"/>
    </defs>
    <g clip-path="url(#p9e2cd04a17)">
     <use xlink:href="#md1d6d62d88" x="200.169434" y="77.596648" style="fill: #9467bd; stroke: #9467bd"/>
    </g>
   </g>
   <g id="patch_3">
    <path d="M 57.6 307.584 
L 57.6 41.472 
" style="fill: none; stroke: #000000; stroke-width: 0.8; stroke-linejoin: miter; stroke-linecap: square"/>
   </g>
   <g id="patch_4">
    <path d="M 414.72 307.584 
L 414.72 41.472 
" style="fill: none; stroke: #000000; stroke-width: 0.8; stroke-linejoin: miter; stroke-linecap: square"/>
   </g>
   <g id="patch_5">
    <path d="M 57.6 307.584 
L 414.72 307.584 
" style="fill: none; stroke: #000000; stroke-width: 0.8; stroke-linejoin: miter; stroke-linecap: square"/>
   </g>
   <g id="patch_6">
    <path d="M 57.6 41.472 
L 414.72 41.472 
" style="fill: none; stroke: #000000; stroke-width: 0.8; stroke-linejoin: miter; stroke-linecap: square"/>
   </g>
   <g id="text_15">
    <!-- Problem 3 Reactor Conversion v Temperature -->
    <g transform="translate(100.029375 35.472) scale(0.12 -0.12)">
     <defs>
      <path id="DejaVuSans-50" d="M 1259 4147 
L 1259 2394 
L 2053 2394 
Q 2494 2394 2734 2622 
Q 2975 2850 2975 3272 
Q 2975 3691 2734 3919 
Q 2494 4147 2053 4147 
L 1259 4147 
z
M 628 4666 
L 2053 4666 
Q 2838 4666 3239 4311 
Q 3641 3956 3641 3272 
Q 3641 2581 3239 2228 
Q 2838 1875 2053 1875 
L 1259 1875 
L 1259 0 
L 628 0 
L 628 4666 
z
" transform="scale(0.015625)"/>
      <path id="DejaVuSans-62" d="M 3116 1747 
Q 3116 2381 2855 2742 
Q 2594 3103 2138 3103 
Q 1681 3103 1420 2742 
Q 1159 2381 1159 1747 
Q 1159 1113 1420 752 
Q 1681 391 2138 391 
Q 2594 391 2855 752 
Q 3116 1113 3116 1747 
z
M 1159 2969 
Q 1341 3281 1617 3432 
Q 1894 3584 2278 3584 
Q 2916 3584 3314 3078 
Q 3713 2572 3713 1747 
Q 3713 922 3314 415 
Q 2916 -91 2278 -91 
Q 1894 -91 1617 61 
Q 1341 213 1159 525 
L 1159 0 
L 581 0 
L 581 4863 
L 1159 4863 
L 1159 2969 
z
" transform="scale(0.015625)"/>
      <path id="DejaVuSans-6c" d="M 603 4863 
L 1178 4863 
L 1178 0 
L 603 0 
L 603 4863 
z
" transform="scale(0.015625)"/>
      <path id="DejaVuSans-52" d="M 2841 2188 
Q 3044 2119 3236 1894 
Q 3428 1669 3622 1275 
L 4263 0 
L 3584 0 
L 2988 1197 
Q 2756 1666 2539 1819 
Q 2322 1972 1947 1972 
L 1259 1972 
L 1259 0 
L 628 0 
L 628 4666 
L 2053 4666 
Q 2853 4666 3247 4331 
Q 3641 3997 3641 3322 
Q 3641 2881 3436 2590 
Q 3231 2300 2841 2188 
z
M 1259 4147 
L 1259 2491 
L 2053 2491 
Q 2509 2491 2742 2702 
Q 2975 2913 2975 3322 
Q 2975 3731 2742 3939 
Q 2509 4147 2053 4147 
L 1259 4147 
z
" transform="scale(0.015625)"/>
      <path id="DejaVuSans-63" d="M 3122 3366 
L 3122 2828 
Q 2878 2963 2633 3030 
Q 2388 3097 2138 3097 
Q 1578 3097 1268 2742 
Q 959 2388 959 1747 
Q 959 1106 1268 751 
Q 1578 397 2138 397 
Q 2388 397 2633 464 
Q 2878 531 3122 666 
L 3122 134 
Q 2881 22 2623 -34 
Q 2366 -91 2075 -91 
Q 1284 -91 818 406 
Q 353 903 353 1747 
Q 353 2603 823 3093 
Q 1294 3584 2113 3584 
Q 2378 3584 2631 3529 
Q 2884 3475 3122 3366 
z
" transform="scale(0.015625)"/>
     </defs>
     <use xlink:href="#DejaVuSans-50"/>
     <use xlink:href="#DejaVuSans-72" x="58.552734"/>
     <use xlink:href="#DejaVuSans-6f" x="97.416016"/>
     <use xlink:href="#DejaVuSans-62" x="158.597656"/>
     <use xlink:href="#DejaVuSans-6c" x="222.074219"/>
     <use xlink:href="#DejaVuSans-65" x="249.857422"/>
     <use xlink:href="#DejaVuSans-6d" x="311.380859"/>
     <use xlink:href="#DejaVuSans-20" x="408.792969"/>
     <use xlink:href="#DejaVuSans-33" x="440.580078"/>
     <use xlink:href="#DejaVuSans-20" x="504.203125"/>
     <use xlink:href="#DejaVuSans-52" x="535.990234"/>
     <use xlink:href="#DejaVuSans-65" x="600.972656"/>
     <use xlink:href="#DejaVuSans-61" x="662.496094"/>
     <use xlink:href="#DejaVuSans-63" x="723.775391"/>
     <use xlink:href="#DejaVuSans-74" x="778.755859"/>
     <use xlink:href="#DejaVuSans-6f" x="817.964844"/>
     <use xlink:href="#DejaVuSans-72" x="879.146484"/>
     <use xlink:href="#DejaVuSans-20" x="920.259766"/>
     <use xlink:href="#DejaVuSans-43" x="952.046875"/>
     <use xlink:href="#DejaVuSans-6f" x="1021.871094"/>
     <use xlink:href="#DejaVuSans-6e" x="1083.052734"/>
     <use xlink:href="#DejaVuSans-76" x="1146.431641"/>
     <use xlink:href="#DejaVuSans-65" x="1205.611328"/>
     <use xlink:href="#DejaVuSans-72" x="1267.134766"/>
     <use xlink:href="#DejaVuSans-73" x="1308.248047"/>
     <use xlink:href="#DejaVuSans-69" x="1360.347656"/>
     <use xlink:href="#DejaVuSans-6f" x="1388.130859"/>
     <use xlink:href="#DejaVuSans-6e" x="1449.3125"/>
     <use xlink:href="#DejaVuSans-20" x="1512.691406"/>
     <use xlink:href="#DejaVuSans-76" x="1544.478516"/>
     <use xlink:href="#DejaVuSans-20" x="1603.658203"/>
     <use xlink:href="#DejaVuSans-54" x="1635.445312"/>
     <use xlink:href="#DejaVuSans-65" x="1679.529297"/>
     <use xlink:href="#DejaVuSans-6d" x="1741.052734"/>
     <use xlink:href="#DejaVuSans-70" x="1838.464844"/>
     <use xlink:href="#DejaVuSans-65" x="1901.941406"/>
     <use xlink:href="#DejaVuSans-72" x="1963.464844"/>
     <use xlink:href="#DejaVuSans-61" x="2004.578125"/>
     <use xlink:href="#DejaVuSans-74" x="2065.857422"/>
     <use xlink:href="#DejaVuSans-75" x="2105.066406"/>
     <use xlink:href="#DejaVuSans-72" x="2168.445312"/>
     <use xlink:href="#DejaVuSans-65" x="2207.308594"/>
    </g>
   </g>
   <g id="legend_1">
    <g id="patch_7">
     <path d="M 319.065313 122.862625 
L 407.72 122.862625 
Q 409.72 122.862625 409.72 120.862625 
L 409.72 48.472 
Q 409.72 46.472 407.72 46.472 
L 319.065313 46.472 
Q 317.065313 46.472 317.065313 48.472 
L 317.065313 120.862625 
Q 317.065313 122.862625 319.065313 122.862625 
z
" style="fill: #ffffff; opacity: 0.8; stroke: #cccccc; stroke-linejoin: miter"/>
    </g>
    <g id="line2d_37">
     <path d="M 321.065313 54.570438 
L 331.065313 54.570438 
L 341.065313 54.570438 
" style="fill: none; stroke: #1f77b4; stroke-width: 1.5; stroke-linecap: square"/>
    </g>
    <g id="text_16">
     <!-- Equilibrium -->
     <g transform="translate(349.065313 58.070438) scale(0.1 -0.1)">
      <defs>
       <path id="DejaVuSans-45" d="M 628 4666 
L 3578 4666 
L 3578 4134 
L 1259 4134 
L 1259 2753 
L 3481 2753 
L 3481 2222 
L 1259 2222 
L 1259 531 
L 3634 531 
L 3634 0 
L 628 0 
L 628 4666 
z
" transform="scale(0.015625)"/>
       <path id="DejaVuSans-71" d="M 947 1747 
Q 947 1113 1208 752 
Q 1469 391 1925 391 
Q 2381 391 2643 752 
Q 2906 1113 2906 1747 
Q 2906 2381 2643 2742 
Q 2381 3103 1925 3103 
Q 1469 3103 1208 2742 
Q 947 2381 947 1747 
z
M 2906 525 
Q 2725 213 2448 61 
Q 2172 -91 1784 -91 
Q 1150 -91 751 415 
Q 353 922 353 1747 
Q 353 2572 751 3078 
Q 1150 3584 1784 3584 
Q 2172 3584 2448 3432 
Q 2725 3281 2906 2969 
L 2906 3500 
L 3481 3500 
L 3481 -1331 
L 2906 -1331 
L 2906 525 
z
" transform="scale(0.015625)"/>
      </defs>
      <use xlink:href="#DejaVuSans-45"/>
      <use xlink:href="#DejaVuSans-71" x="63.183594"/>
      <use xlink:href="#DejaVuSans-75" x="126.660156"/>
      <use xlink:href="#DejaVuSans-69" x="190.039062"/>
      <use xlink:href="#DejaVuSans-6c" x="217.822266"/>
      <use xlink:href="#DejaVuSans-69" x="245.605469"/>
      <use xlink:href="#DejaVuSans-62" x="273.388672"/>
      <use xlink:href="#DejaVuSans-72" x="336.865234"/>
      <use xlink:href="#DejaVuSans-69" x="377.978516"/>
      <use xlink:href="#DejaVuSans-75" x="405.761719"/>
      <use xlink:href="#DejaVuSans-6d" x="469.140625"/>
     </g>
    </g>
    <g id="line2d_38">
     <path d="M 321.065313 69.248563 
L 331.065313 69.248563 
L 341.065313 69.248563 
" style="fill: none; stroke: #ff7f0e; stroke-width: 1.5; stroke-linecap: square"/>
    </g>
    <g id="text_17">
     <!-- Reactor 1 -->
     <g transform="translate(349.065313 72.748563) scale(0.1 -0.1)">
      <use xlink:href="#DejaVuSans-52"/>
      <use xlink:href="#DejaVuSans-65" x="64.982422"/>
      <use xlink:href="#DejaVuSans-61" x="126.505859"/>
      <use xlink:href="#DejaVuSans-63" x="187.785156"/>
      <use xlink:href="#DejaVuSans-74" x="242.765625"/>
      <use xlink:href="#DejaVuSans-6f" x="281.974609"/>
      <use xlink:href="#DejaVuSans-72" x="343.15625"/>
      <use xlink:href="#DejaVuSans-20" x="384.269531"/>
      <use xlink:href="#DejaVuSans-31" x="416.056641"/>
     </g>
    </g>
    <g id="line2d_39">
     <path d="M 321.065313 83.926688 
L 331.065313 83.926688 
L 341.065313 83.926688 
" style="fill: none; stroke: #2ca02c; stroke-width: 1.5; stroke-linecap: square"/>
    </g>
    <g id="text_18">
     <!-- Reactor 2 -->
     <g transform="translate(349.065313 87.426688) scale(0.1 -0.1)">
      <use xlink:href="#DejaVuSans-52"/>
      <use xlink:href="#DejaVuSans-65" x="64.982422"/>
      <use xlink:href="#DejaVuSans-61" x="126.505859"/>
      <use xlink:href="#DejaVuSans-63" x="187.785156"/>
      <use xlink:href="#DejaVuSans-74" x="242.765625"/>
      <use xlink:href="#DejaVuSans-6f" x="281.974609"/>
      <use xlink:href="#DejaVuSans-72" x="343.15625"/>
      <use xlink:href="#DejaVuSans-20" x="384.269531"/>
      <use xlink:href="#DejaVuSans-32" x="416.056641"/>
     </g>
    </g>
    <g id="line2d_40">
     <path d="M 321.065313 98.604813 
L 331.065313 98.604813 
L 341.065313 98.604813 
" style="fill: none; stroke: #d62728; stroke-width: 1.5; stroke-linecap: square"/>
    </g>
    <g id="text_19">
     <!-- Reactor 3 -->
     <g transform="translate(349.065313 102.104813) scale(0.1 -0.1)">
      <use xlink:href="#DejaVuSans-52"/>
      <use xlink:href="#DejaVuSans-65" x="64.982422"/>
      <use xlink:href="#DejaVuSans-61" x="126.505859"/>
      <use xlink:href="#DejaVuSans-63" x="187.785156"/>
      <use xlink:href="#DejaVuSans-74" x="242.765625"/>
      <use xlink:href="#DejaVuSans-6f" x="281.974609"/>
      <use xlink:href="#DejaVuSans-72" x="343.15625"/>
      <use xlink:href="#DejaVuSans-20" x="384.269531"/>
      <use xlink:href="#DejaVuSans-33" x="416.056641"/>
     </g>
    </g>
    <g id="line2d_41">
     <path d="M 321.065313 113.282938 
L 331.065313 113.282938 
L 341.065313 113.282938 
" style="fill: none; stroke: #9467bd; stroke-width: 1.5; stroke-linecap: square"/>
    </g>
    <g id="text_20">
     <!-- Reactor 4 -->
     <g transform="translate(349.065313 116.782938) scale(0.1 -0.1)">
      <use xlink:href="#DejaVuSans-52"/>
      <use xlink:href="#DejaVuSans-65" x="64.982422"/>
      <use xlink:href="#DejaVuSans-61" x="126.505859"/>
      <use xlink:href="#DejaVuSans-63" x="187.785156"/>
      <use xlink:href="#DejaVuSans-74" x="242.765625"/>
      <use xlink:href="#DejaVuSans-6f" x="281.974609"/>
      <use xlink:href="#DejaVuSans-72" x="343.15625"/>
      <use xlink:href="#DejaVuSans-20" x="384.269531"/>
      <use xlink:href="#DejaVuSans-34" x="416.056641"/>
     </g>
    </g>
   </g>
  </g>
 </g>
 <defs>
  <clipPath id="p9e2cd04a17">
   <rect x="57.6" y="41.472" width="357.12" height="266.112"/>
  </clipPath>
 </defs>
</svg>
